<svg xmlns="http://www.w3.org/2000/svg" xmlns:xlink="http://www.w3.org/1999/xlink" width="556.186" height="130.52" viewBox="0 0 556.186 130.52">
  <defs>
    <linearGradient id="linear-gradient" x1="0.533" y1="0.074" x2="0.505" y2="0.415" gradientUnits="objectBoundingBox">
      <stop offset="0" stop-color="#7e5bff"/>
      <stop offset="1" stop-color="#951dce"/>
    </linearGradient>
    <linearGradient id="linear-gradient-2" x1="0.5" y1="-0.009" x2="0.5" y2="0.557" xlink:href="#linear-gradient"/>
    <linearGradient id="linear-gradient-4" x1="0.514" y1="0.081" x2="0.484" y2="0.954" gradientUnits="objectBoundingBox">
      <stop offset="0" stop-color="#7e5bff"/>
      <stop offset="1" stop-color="#b92bf1"/>
    </linearGradient>
    <linearGradient id="linear-gradient-5" x1="3.512" y1="-6.887" x2="3.215" y2="-6.384" gradientUnits="objectBoundingBox">
      <stop offset="0" stop-color="#621dce"/>
      <stop offset="1" stop-color="#32154c"/>
    </linearGradient>
    <linearGradient id="linear-gradient-6" x1="2.855" y1="-6.336" x2="2.58" y2="-5.815" xlink:href="#linear-gradient-5"/>
    <linearGradient id="linear-gradient-7" x1="7.215" y1="-7.737" x2="7.065" y2="-6.963" xlink:href="#linear-gradient-5"/>
    <linearGradient id="linear-gradient-8" x1="0.502" y1="0.187" x2="0.498" y2="1.23" gradientUnits="objectBoundingBox">
      <stop offset="0" stop-color="#e3fffa"/>
      <stop offset="1" stop-color="#51f2ed"/>
    </linearGradient>
    <linearGradient id="linear-gradient-9" x1="0.5" y1="-0.264" x2="0.5" y2="1.161" xlink:href="#linear-gradient-4"/>
    <linearGradient id="linear-gradient-10" x1="0.262" y1="0.397" x2="0.935" y2="0.952" gradientUnits="objectBoundingBox">
      <stop offset="0" stop-color="#fc70c7"/>
      <stop offset="1" stop-color="#951dce"/>
    </linearGradient>
    <linearGradient id="linear-gradient-11" x1="0.032" y1="0.253" x2="0.855" y2="0.925" xlink:href="#linear-gradient-8"/>
    <linearGradient id="linear-gradient-12" x1="0.502" y1="0.208" x2="0.5" y2="0.945" xlink:href="#linear-gradient-4"/>
    <linearGradient id="linear-gradient-13" x1="-66.88" y1="-0.03" x2="-66.21" y2="0.741" gradientUnits="objectBoundingBox">
      <stop offset="0" stop-color="#b92bf1"/>
      <stop offset="1" stop-color="#51f2ed"/>
    </linearGradient>
    <linearGradient id="linear-gradient-14" x1="-92.156" y1="0.195" x2="-91.412" y2="0.718" gradientUnits="objectBoundingBox">
      <stop offset="0" stop-color="#917bff"/>
      <stop offset="1" stop-color="#5c41e5"/>
    </linearGradient>
  </defs>
  <g id="Grupo_126" data-name="Grupo 126" transform="translate(-19.382 -349.628)">
    <path id="Caminho_393" data-name="Caminho 393" d="M549.529,386.484c-2.4,3.754-3.325,8.229-4.915,12.39s-4.211,8.346-8.409,9.836c-5.922,2.1-12.135-1.9-17.022-5.85s-10.622-8.336-16.773-7.056c-4.2.873-7.565,4.294-11.8,4.991-5.8.954-10.993-3.36-15.329-7.321s-9.71-8.152-15.449-6.9c-4.6,1-7.679,5.169-10.705,8.776s-7.214,7.2-11.851,6.386c-.467,12.944-3.185,25.809-2.5,38.743s5.581,26.641,16.587,33.469c8.586,5.327,19.265,5.579,29.368,5.674l55.213.513c6.158.057,12.559.064,18.129-2.562,6.889-3.248,11.424-10.033,14.591-16.959a78.766,78.766,0,0,0,6.727-37.81,80.122,80.122,0,0,0-11.756-36.97c-1.411-2.268-2.456-5.184-5.494-5.111C554.623,380.808,551.323,383.674,549.529,386.484Z" fill="url(#linear-gradient)"/>
    <path id="Caminho_394" data-name="Caminho 394" d="M200.8,381.628c-2.56,1.29-5.037,2.9-7.859,3.4-7.076,1.276-14.214-4.638-21.126-2.657-6.275,1.8-9.782,9.5-16.237,10.475-2.646.4-5.576-.4-7.887.954-2.844,1.662-3.183,5.565-3.191,8.858-.008,3.421.062,7.1,2.068,9.868,1.812,2.5,4.869,3.767,7.852,4.569a42.032,42.032,0,0,0,43.275-14.751c2.277-2.991,4.145-6.3,6.65-9.1,2.418-2.7,9.348-5.091,8.491-9.461C211.727,378.151,204.2,379.91,200.8,381.628Z" fill="url(#linear-gradient-2)"/>
    <path id="Caminho_395" data-name="Caminho 395" d="M341.463,393.342c-6.945-.66-11.02,9.028-17.969,9.647-3.676.328-7.075-2.07-9.453-4.892s-4.111-6.164-6.663-8.83-6.339-4.637-9.886-3.618c-4.412,1.266-6.75,6.556-11.172,7.791-3.385.945-7.033-.777-10.48-.09-4.106.818-6.771,4.744-8.623,8.5s-3.551,7.912-7.082,10.16c-1.989,1.266-4.353,1.775-6.519,2.705s-4.3,2.517-4.8,4.821a6.342,6.342,0,0,0,2.412,5.908,17.815,17.815,0,0,0,5.986,2.927,249.806,249.806,0,0,0,69.718,12.819c6.358.249,13.064.172,18.591-2.98,6.441-3.672,10.129-11.052,10.932-18.423.612-5.625.358-13.926-2.376-19.058C352.254,397.3,345.181,393.7,341.463,393.342Z" fill="url(#linear-gradient-2)"/>
    <path id="Caminho_396" data-name="Caminho 396" d="M335.12,381.762a3.394,3.394,0,0,1-1.624,2.423c-.028.012-.055.014-.083.024a14.24,14.24,0,0,0,2.212,7.666,53.616,53.616,0,0,0,4.187-16.4c-.046-.012-.089-.016-.137-.032-1.836-.633-1.473-4.553-1.282-6.019a31.458,31.458,0,0,1,2.04-6.982c1.3,2.872,2.632,5.93,2.242,9.059-.153,1.229-.8,3.973-2.4,4.031a53.427,53.427,0,0,1-2.454,11.813,24.967,24.967,0,0,0,3.743-4.036c-.349-.515-.1-1.412.038-1.945a8.565,8.565,0,0,1,2.4-3.928,22.634,22.634,0,0,1,5.726-3.631,41.849,41.849,0,0,1-4.607,7.986,5.716,5.716,0,0,1-1.428,1.492,2.126,2.126,0,0,1-1.783.318,25.345,25.345,0,0,1-4.219,4.449.215.215,0,0,1-.119.046,56.348,56.348,0,0,1-6.97,13.763,19.7,19.7,0,0,0,4.332-1.923,1.977,1.977,0,0,1,.017-.6,5.2,5.2,0,0,1,.854-2.1,10.754,10.754,0,0,1,2.354-2.365,29.988,29.988,0,0,1,8.011-4.493c-2.108,2.606-2.759,6.293-5.309,8.468a7.02,7.02,0,0,1-4.626,1.642,2.2,2.2,0,0,1-1.08-.164,19.931,19.931,0,0,1-4.985,2.134q-1.163,1.63-2.436,3.174a.227.227,0,0,1-.09.111,52.814,52.814,0,0,1-12.977,11.3.225.225,0,0,1-.31-.075l-.01-.016a.227.227,0,0,1,.084-.295,52.332,52.332,0,0,0,12.82-11.144,21.109,21.109,0,0,1-1.944-7.4A5.359,5.359,0,0,1,323.878,396a8.636,8.636,0,0,1-.471-5.339,15.826,15.826,0,0,1,4.244-7.159,17.293,17.293,0,0,0,.389,5.241,16.861,16.861,0,0,1,.368,5.242,6.633,6.633,0,0,1-1.111,2.912c-.294.414-.925,1.247-1.518,1.334a20.639,20.639,0,0,0,1.794,6.894,55.878,55.878,0,0,0,7.836-12.748,13.939,13.939,0,0,1-.889-1.511,14.791,14.791,0,0,1-1.56-6.587,2.312,2.312,0,0,1-1.436-.934,7.777,7.777,0,0,1-1.732-5.968,12.9,12.9,0,0,1,3.594-7.052q1,3.988,1.634,8.058A9.512,9.512,0,0,1,335.12,381.762Z" fill="#32154c"/>
    <path id="Caminho_397" data-name="Caminho 397" d="M499.8,377.1a4.375,4.375,0,0,1,1.117,3.594c-.011.038-.03.067-.043.1a18.359,18.359,0,0,0,9.487,3.991,69.187,69.187,0,0,0-13.073-17.493c-.049.037-.088.077-.143.112-2.123,1.33-5.764-2.21-7.08-3.589a40.55,40.55,0,0,1-5.357-7.706c3.937,1.022,8.086,2.163,10.911,5.09,1.109,1.149,3.342,4.018,2.1,5.674a68.919,68.919,0,0,1,9.87,12.035,32.239,32.239,0,0,0-1.018-7.028c-.8-.067-1.5-1.044-1.922-1.614a11.039,11.039,0,0,1-2-5.6,29.188,29.188,0,0,1,.995-8.69,54.047,54.047,0,0,1,4.284,11.1,7.377,7.377,0,0,1,.341,2.643,2.74,2.74,0,0,1-1.126,2.047,32.758,32.758,0,0,1,1.048,7.84.284.284,0,0,1-.05.157,72.679,72.679,0,0,1,8.168,18.147A25.334,25.334,0,0,0,517.89,392a2.585,2.585,0,0,1-.583-.5,6.7,6.7,0,0,1-1.417-2.559,13.87,13.87,0,0,1-.467-4.28,38.675,38.675,0,0,1,1.981-11.681c.907,4.227,4.081,7.868,4.2,12.19a9.063,9.063,0,0,1-2.1,5.975c-.419.5-.723.851-1.04.951a25.7,25.7,0,0,1-1.9,6.732q.7,2.487,1.213,5.018a.282.282,0,0,1,.038.179,68.093,68.093,0,0,1,.829,22.181.292.292,0,0,1-.327.252l-.024,0a.291.291,0,0,1-.227-.323,67.526,67.526,0,0,0-.8-21.9,27.231,27.231,0,0,1-9-4.044,6.918,6.918,0,0,1-3.286-.277,11.138,11.138,0,0,1-5.741-3.853c-2.254-2.836-3.257-6.471-3.748-10.06a22.3,22.3,0,0,0,5.577,3.856,21.753,21.753,0,0,1,5.559,3.877,8.551,8.551,0,0,1,2.023,3.475,4.066,4.066,0,0,1,.109,2.6,26.632,26.632,0,0,0,8.375,3.785,72.081,72.081,0,0,0-6.449-18.194,17.986,17.986,0,0,1-2.237-.333,19.074,19.074,0,0,1-7.875-3.77,2.992,2.992,0,0,1-2.1.685,10.033,10.033,0,0,1-7.394-3.1,16.65,16.65,0,0,1-4.168-9.321q4.813,2.229,9.413,4.887A12.319,12.319,0,0,1,499.8,377.1Z" fill="#32154c"/>
    <path id="Caminho_398" data-name="Caminho 398" d="M263.718,392.523c5.067,3.229,9.953,7.559,15.954,7.864,4.808.245,9.281-2.182,13.72-4.046s9.71-3.163,13.912-.811c6.131,3.431,6.788,12.749,12.828,16.339,7.352,4.37,17.18-2.563,25.149.541,4.711,1.835,7.532,6.737,11.928,9.236,7.849,4.464,18.007.123,26.644,2.757,3.382,1.032,6.721,3.674,6.82,7.209.084,3-2.275,5.637-5.031,6.831s-5.852,1.247-8.855,1.283l-109.387,1.3c-3.119.037-6.386.04-9.149-1.41-3.967-2.081-5.919-6.609-7.263-10.883a93.843,93.843,0,0,1-4.257-30.929c.149-4.875-.341-8.138,5.312-8.786C256.088,388.552,260.384,390.4,263.718,392.523Z" fill="url(#linear-gradient-4)"/>
    <g id="Grupo_121" data-name="Grupo 121">
      <g id="Grupo_118" data-name="Grupo 118">
        <path id="Caminho_399" data-name="Caminho 399" d="M250.891,362.52a72.459,72.459,0,0,0-9.445,8.726,74.337,74.337,0,0,0-14.426,23.56c-.952,2.517-4.354,9.625-2.685,11.955,2.289,3.2,8.732.783,10.915-1.139,3.218-2.834,4.762-7.065,6.184-11.11l10.885-30.962A.919.919,0,0,0,250.891,362.52Z" fill="url(#linear-gradient-5)"/>
        <path id="Caminho_400" data-name="Caminho 400" d="M230.9,409.995a.526.526,0,0,1-.449-.55l.036-.668a.474.474,0,0,1,.015-.1,59.321,59.321,0,0,1,5.452-19.914,177.073,177.073,0,0,1,10.3-18.731.527.527,0,1,1,.9.545,176.136,176.136,0,0,0-10.244,18.617A57.6,57.6,0,0,0,231.5,409.5a.527.527,0,0,1-.555.5Z" fill="#d9d9d9" style="mix-blend-mode: multiply;isolation: isolate"/>
      </g>
      <g id="Grupo_119" data-name="Grupo 119">
        <path id="Caminho_401" data-name="Caminho 401" d="M264.363,364.745a61.709,61.709,0,0,0-31.4,45.391c3.689,1.61,4.615,3.167,8.251,1.439,2.484-1.181,4.042-3.664,5.432-6.038A314.42,314.42,0,0,0,266.084,366.3,1.236,1.236,0,0,0,264.363,364.745Z" fill="url(#linear-gradient-6)"/>
        <path id="Caminho_402" data-name="Caminho 402" d="M234.372,415.03a.576.576,0,0,1-.1-.026.528.528,0,0,1-.315-.676,134.951,134.951,0,0,1,24.941-42.409.526.526,0,1,1,.795.69,133.9,133.9,0,0,0-24.746,42.08A.528.528,0,0,1,234.372,415.03Z" fill="#d9d9d9" style="mix-blend-mode: multiply;isolation: isolate"/>
      </g>
      <g id="Grupo_120" data-name="Grupo 120">
        <path id="Caminho_403" data-name="Caminho 403" d="M232.938,390.407a113.352,113.352,0,0,0,.875-26.145.837.837,0,0,0-1.584-.287,108.835,108.835,0,0,0-9.344,27.273c-.616,3.088-1.068,6.434.3,9.269,1.177,2.44,5.27,5.067,7.287,2.371C232.376,400.343,232.471,393.517,232.938,390.407Z" fill="url(#linear-gradient-7)"/>
        <path id="Caminho_404" data-name="Caminho 404" d="M226.947,409.686a.528.528,0,0,1-.45-.494c-.651-12.6,2.156-25.025,4.87-37.046a.526.526,0,0,1,1.027.232c-2.7,11.951-5.489,24.309-4.845,36.76a.527.527,0,0,1-.5.553A.5.5,0,0,1,226.947,409.686Z" fill="#d9d9d9" style="mix-blend-mode: multiply;isolation: isolate"/>
      </g>
    </g>
    <path id="Caminho_405" data-name="Caminho 405" d="M136.01,376.9a3.516,3.516,0,0,0-.6,2.962c.012.03.03.051.043.079a14.751,14.751,0,0,1-7.261,3.953,55.56,55.56,0,0,1,9.039-15.033c.042.025.077.054.123.077,1.8.892,4.429-2.231,5.37-3.439a32.578,32.578,0,0,0,3.66-6.59c-3.064,1.134-6.288,2.381-8.31,4.947-.794,1.008-2.347,3.481-1.223,4.7a55.338,55.338,0,0,0-6.919,10.414,25.857,25.857,0,0,1,.248-5.7c.634-.118,1.114-.955,1.406-1.445a8.874,8.874,0,0,0,1.145-4.632,23.454,23.454,0,0,0-1.495-6.865,43.342,43.342,0,0,0-2.53,9.212,5.931,5.931,0,0,0-.06,2.14,2.2,2.2,0,0,0,1.065,1.545,26.247,26.247,0,0,0-.206,6.351.226.226,0,0,0,.053.121,58.367,58.367,0,0,0-5.066,15.162,20.394,20.394,0,0,1-1.738-4.594,2.048,2.048,0,0,0,.425-.446,5.374,5.374,0,0,0,.927-2.159,11.137,11.137,0,0,0,.029-3.458,31.093,31.093,0,0,0-2.525-9.177c-.385,3.451-2.628,6.618-2.373,10.081a7.276,7.276,0,0,0,2.159,4.606,2.265,2.265,0,0,0,.908.676,20.658,20.658,0,0,0,2.058,5.228q-.355,2.045-.565,4.108a.231.231,0,0,0-.016.147,54.688,54.688,0,0,0,1.125,17.794.234.234,0,0,0,.281.175l.019-.006a.234.234,0,0,0,.156-.276A54.213,54.213,0,0,1,124.235,400a21.874,21.874,0,0,0,6.869-3.957,5.544,5.544,0,0,0,2.6-.487,8.937,8.937,0,0,0,4.278-3.541,16.408,16.408,0,0,0,2.185-8.342,17.952,17.952,0,0,1-4.146,3.531,17.445,17.445,0,0,0-4.132,3.547,6.864,6.864,0,0,0-1.336,2.939,3.27,3.27,0,0,0,.122,2.091,21.383,21.383,0,0,1-6.388,3.7,57.929,57.929,0,0,1,3.688-15.061,14.277,14.277,0,0,0,1.761-.445,15.33,15.33,0,0,0,5.991-3.648,2.4,2.4,0,0,0,1.735.378,8.062,8.062,0,0,0,5.66-3.071,13.369,13.369,0,0,0,2.579-7.785q-3.668,2.169-7.129,4.664A9.886,9.886,0,0,0,136.01,376.9Z" fill="#32154c"/>
    <path id="Caminho_406" data-name="Caminho 406" d="M275.551,414.6a19.957,19.957,0,0,0-8.726-5.635c-4.561-1.419-8.87-.077-13.487-.247-5.667-.21-6.3-6.079-11.077-7.831-4.258-1.56-8.6.6-12.893.541-8.07-.118-5.328-7.9-7.084-13.016a7.559,7.559,0,0,0-6.145-5.169c-4.251-.713-8.08,1.463-11.677,3.374-4.074,2.166-7.053,2.41-11.462,1.676a11.146,11.146,0,0,0-5.8.123c-4.046,1.445-5.515,5.751-7.416,9.191a24.323,24.323,0,0,1-16.069,11.927,1.427,1.427,0,0,0-.346,2.6,1.5,1.5,0,0,0-.054.426c.185,8.251,6.411,14.077,13.821,16.7,10.522,3.725,23.011,3.751,34.025,4.871,12.382,1.259,24.809,2.219,37.261,2.3,6.207.04,12.418-.136,18.608-.6,3.389-.256,8.37.053,11.176-2.346C283.744,428.737,279.423,418.855,275.551,414.6Z" fill="url(#linear-gradient-8)"/>
    <path id="Caminho_407" data-name="Caminho 407" d="M221.631,417.99c-3.195-2.478-7.279-3.195-11.179-3.755-1.429-.2-2.948-.292-4.354-.623-4.133-.974-4.148-3.723-3.089-7.557.408-1.476.967-2.575.6-4.172-.654-2.893-3.513-4.511-6.288-4.821-6.181-.691-12.568,4.958-15.564-3.6-2.544-7.261-9.009-7.613-14.074-2.053-1.827,2-3.268,4.769-5.782,6.028-3.946,1.976-6.176-.866-8.953-2.991-2.42-1.853-4.95-3.129-8.053-2.383-4.4,1.057-6.82,5.227-8.558,9.009-1.177,2.561-2.217,5.418-4.3,7.424-3.224,3.1-7.047,1.739-10.914,2.114-10.509,1.018-9.978,12.171-7.891,19.916a1.379,1.379,0,0,0,.407,2.509c24.609,4.683,49.651,4.353,74.587,3.745q8.933-.218,17.863-.441c4.716-.117,10.174.344,14.551-1.808C227.733,431.049,227.583,422.607,221.631,417.99Z" fill="url(#linear-gradient-9)"/>
    <g id="Grupo_122" data-name="Grupo 122">
      <path id="Caminho_408" data-name="Caminho 408" d="M75.649,386.671c-8.925-5.386-19.191-7.994-29.109-11.2s-19.956-7.289-27.157-14.824c.076,14.675,1.855,29.561,7.572,43.077s15.7,25.615,29.029,31.763c11.169,5.153,27.111,4.264,38.86-1.385a10.2,10.2,0,0,0,5.546-10.961A53.892,53.892,0,0,0,75.649,386.671Z" fill="url(#linear-gradient-10)"/>
      <path id="Caminho_409" data-name="Caminho 409" d="M99.819,428.647a89.856,89.856,0,0,0-6.955-7.441,57.458,57.458,0,0,0,.872-16.038q-.756-1.289-1.581-2.534a56.413,56.413,0,0,1-.411,17.51c-2.29-2.137-4.95-4.427-8-6.8a60.249,60.249,0,0,0,.371-20.231c-.509-.477-1.019-.953-1.546-1.409a58.991,58.991,0,0,1,.023,20.754c-2.422-1.841-5.082-3.727-7.995-5.631a83.189,83.189,0,0,0,.014-20.732q-.693-.4-1.4-.778a81.985,81.985,0,0,1,.176,20.729q-3.843-2.46-8.263-4.928a71.166,71.166,0,0,0-.493-19.693c-.46-.177-.926-.343-1.389-.513a69.943,69.943,0,0,1,.657,19.536c-2.275-1.24-4.657-2.472-7.165-3.689a48.539,48.539,0,0,0-.514-18.24c-.469-.149-.938-.3-1.408-.447a47.314,47.314,0,0,1,.709,18.085c-2.615-1.279-5.034-2.567-7.278-3.856a44.06,44.06,0,0,0-1.123-16.644c-.193-.062-.387-.121-.579-.183-.292-.094-.584-.192-.875-.288a42.87,42.87,0,0,1,1.36,16.415,93.956,93.956,0,0,1-8.442-5.6,31.8,31.8,0,0,0,1.755-12.675c-.44-.165-.881-.33-1.319-.5a30.659,30.659,0,0,1-1.52,12.36c-1.594-1.233-3.033-2.45-4.35-3.645a27.6,27.6,0,0,0,1.924-10.365c-.433-.194-.866-.389-1.3-.591A26.419,26.419,0,0,1,32.129,380.6a55.756,55.756,0,0,1-4.705-5.027l.832-7.934q-.61-.369-1.212-.753l-.759,7.249c-4.71-6.194-5.882-10.986-6.168-12.757-.245-.242-.5-.478-.735-.728.007,1.2.029,2.392.059,3.59a33.722,33.722,0,0,0,5.533,10.455,23.483,23.483,0,0,1-4.988-.7c.041.451.086.9.132,1.354a24.525,24.525,0,0,0,5.373.644c.164,0,.328,0,.492-.005a56.059,56.059,0,0,0,5.357,5.726,31.941,31.941,0,0,1-10.375.31c.068.438.14.875.213,1.313a33.348,33.348,0,0,0,3.841.275,32.594,32.594,0,0,0,7.5-.824c1.316,1.172,2.749,2.363,4.328,3.569a26.684,26.684,0,0,1-14.3,3.754q.157.657.323,1.31l.075,0a27.944,27.944,0,0,0,15.012-4.248,97.039,97.039,0,0,0,8.465,5.57,49.5,49.5,0,0,1-21.2,6.476q.22.623.451,1.242a50.734,50.734,0,0,0,22.039-6.983c2.408,1.374,5,2.748,7.822,4.112a63.3,63.3,0,0,1-25.642,12.217c.21.39.416.782.634,1.168a64.523,64.523,0,0,0,26.192-12.682.589.589,0,0,0,.068-.083q3.421,1.677,6.542,3.382a40.982,40.982,0,0,1-15.066,12.3,54.278,54.278,0,0,1-13.127,4.192c.288.387.59.76.886,1.14a55.2,55.2,0,0,0,12.789-4.172,42.268,42.268,0,0,0,15.659-12.834q4.5,2.5,8.4,5.009a48.638,48.638,0,0,1-16.552,11.853,123.547,123.547,0,0,1-15.559,5.558c.343.348.7.686,1.047,1.024a121.539,121.539,0,0,0,15.041-5.413,49.812,49.812,0,0,0,17.113-12.312c3.016,1.974,5.768,3.928,8.249,5.828a70.308,70.308,0,0,1-32.745,18.06c.486.322.973.641,1.47.946a71.577,71.577,0,0,0,32.3-18.209c3,2.347,5.616,4.607,7.856,6.708a65.53,65.53,0,0,1-31.572,15.577c.863.283,1.741.539,2.64.761A66.763,66.763,0,0,0,92.01,422.157a86.88,86.88,0,0,1,7.21,7.779A10.194,10.194,0,0,0,99.819,428.647Z" fill="#d9d9d9" style="mix-blend-mode: multiply;isolation: isolate"/>
    </g>
    <g id="Grupo_123" data-name="Grupo 123">
      <path id="Caminho_410" data-name="Caminho 410" d="M111.017,387.4c-6.147-7.067-14.208-12.13-21.805-17.608s-15.056-11.738-19.137-20.168c-3.982,12.572-6.566,25.793-5.4,38.929s6.365,26.237,16.066,35.171c8.13,7.487,22.009,11.124,33.615,9.533a9.161,9.161,0,0,0,7.766-7.845A48.428,48.428,0,0,0,111.017,387.4Z" fill="url(#linear-gradient-11)"/>
      <path id="Caminho_411" data-name="Caminho 411" d="M120.11,429.97a80.783,80.783,0,0,0-3.9-8.283,51.6,51.6,0,0,0,5.17-13.475q-.292-1.311-.653-2.6a50.747,50.747,0,0,1-5.181,14.862c-1.369-2.459-3.013-5.151-4.969-8.027a54.132,54.132,0,0,0,5.9-17.2c-.3-.548-.608-1.1-.934-1.631a53,53,0,0,1-5.7,17.755q-2.344-3.363-5.284-7.021a74.8,74.8,0,0,0,5.73-17.726q-.483-.533-.98-1.051a73.655,73.655,0,0,1-5.567,17.776q-2.608-3.164-5.708-6.493a63.945,63.945,0,0,0,5.011-16.978c-.345-.278-.7-.548-1.047-.822a62.774,62.774,0,0,1-4.827,16.888c-1.6-1.687-3.3-3.4-5.109-5.13A43.628,43.628,0,0,0,96.65,375.07q-.54-.386-1.081-.771a42.531,42.531,0,0,1-4.381,15.662c-1.885-1.815-3.6-3.583-5.162-5.3a39.585,39.585,0,0,0,3.631-14.543c-.148-.107-.3-.211-.445-.317-.224-.161-.446-.325-.669-.488a38.528,38.528,0,0,1-3.364,14.414A84.274,84.274,0,0,1,79.5,376.6a28.618,28.618,0,0,0,5-10.356c-.332-.263-.663-.525-.99-.792a27.556,27.556,0,0,1-4.71,10.151c-1.023-1.494-1.918-2.932-2.714-4.317a24.8,24.8,0,0,0,4.5-8.334c-.317-.285-.634-.571-.945-.863a23.764,23.764,0,0,1-4.173,8.115,50.168,50.168,0,0,1-2.638-5.6l2.9-6.556q-.42-.483-.828-.977l-2.65,5.99c-2.319-6.6-2-11.018-1.756-12.612-.143-.274-.291-.545-.427-.825-.324,1.024-.635,2.054-.94,3.086a30.3,30.3,0,0,0,1.849,10.468,21.047,21.047,0,0,1-4.074-1.973c-.09.4-.175.8-.261,1.194a22.031,22.031,0,0,0,4.418,2.033c.14.046.281.088.422.132a50.183,50.183,0,0,0,3,6.374,28.686,28.686,0,0,1-8.959-2.6c-.063.394-.122.788-.18,1.182a29.949,29.949,0,0,0,3.208,1.295,29.285,29.285,0,0,0,6.645,1.364c.8,1.366,1.7,2.78,2.717,4.247a23.982,23.982,0,0,1-13.269-.735q-.048.6-.086,1.209l.064.023a25.1,25.1,0,0,0,14.01.507,86.9,86.9,0,0,0,5.7,7.1,44.473,44.473,0,0,1-19.918-.309q.017.594.044,1.186a45.581,45.581,0,0,0,20.774.107c1.68,1.839,3.515,3.728,5.555,5.674a56.877,56.877,0,0,1-25.3,3.376c.072.391.14.784.22,1.174a57.991,57.991,0,0,0,25.9-3.622.533.533,0,0,0,.081-.052q2.463,2.377,4.662,4.7a36.832,36.832,0,0,1-16.277,6.362,48.8,48.8,0,0,1-12.382-.035c.139.409.295.812.443,1.218a49.623,49.623,0,0,0,12.088-.04,37.99,37.99,0,0,0,16.932-6.657q3.161,3.382,5.8,6.6a43.71,43.71,0,0,1-17.424,5.572,111.24,111.24,0,0,1-14.84.461c.2.392.406.779.613,1.165a109.357,109.357,0,0,0,14.356-.481,44.758,44.758,0,0,0,18.031-5.809c2.036,2.519,3.85,4.95,5.448,7.259A63.18,63.18,0,0,1,76.164,418.8c.327.409.655.817,1,1.214a64.31,64.31,0,0,0,32.643-6.664c1.918,2.834,3.532,5.488,4.869,7.9a58.884,58.884,0,0,1-31.3,4.614c.659.479,1.34.941,2.047,1.379a60,60,0,0,0,29.8-4.976,77.95,77.95,0,0,1,4.02,8.642A9.39,9.39,0,0,0,120.11,429.97Z" fill="#d9d9d9" style="mix-blend-mode: multiply;isolation: isolate"/>
    </g>
    <path id="Caminho_412" data-name="Caminho 412" d="M405.2,419.541c4.371-2.009,9.881-2.521,12.637-6.465,3.219-4.6,1.092-11.964,5.317-15.668,2.857-2.506,7.24-1.975,10.851-.788s7.287,2.9,11.037,2.294c6.3-1.025,10.833-8.336,17.18-7.647,4.708.512,7.663,5.2,9.8,9.425s4.764,9,9.4,9.97c5.49,1.153,11.114-3.745,16.454-2.028s6.869,8.833,11.6,11.851c4.9,3.125,11.4.9,17.109,1.994A14.678,14.678,0,0,1,537.73,441.6c-41.948,5.057-84.453,6.57-126.467,2.1-5.56-.592-16,.6-16.42-6.94A18.66,18.66,0,0,1,405.2,419.541Z" fill="url(#linear-gradient-12)"/>
    <g id="Grupo_124" data-name="Grupo 124">
      <path id="Caminho_413" data-name="Caminho 413" d="M377.739,396.438c7.863-5.385,16.91-7.994,25.648-11.2s17.583-7.289,23.929-14.824c-.068,14.675-1.635,29.561-6.672,43.077s-13.837,25.615-25.578,31.763c-9.842,5.153-23.888,4.264-34.24-1.385-3.613-1.971-5.574-6.479-4.886-10.961C358.225,418.006,366.3,404.269,377.739,396.438Z" fill="url(#linear-gradient-13)"/>
      <path id="Caminho_414" data-name="Caminho 414" d="M356.442,438.415a86.713,86.713,0,0,1,6.129-7.442,65.053,65.053,0,0,1-.769-16.038q.668-1.287,1.393-2.534a63.934,63.934,0,0,0,.362,17.51c2.018-2.137,4.362-4.427,7.053-6.8a68.258,68.258,0,0,1-.327-20.231c.448-.476.9-.952,1.362-1.408a66.838,66.838,0,0,0-.02,20.753c2.133-1.84,4.478-3.727,7.044-5.631a94.356,94.356,0,0,1-.012-20.732q.61-.4,1.231-.777a92.919,92.919,0,0,0-.155,20.728q3.385-2.46,7.281-4.928a80.616,80.616,0,0,1,.434-19.693c.4-.177.815-.342,1.223-.513a79.252,79.252,0,0,0-.578,19.536q3.006-1.859,6.313-3.689a54.964,54.964,0,0,1,.453-18.24c.413-.149.826-.3,1.241-.447a53.546,53.546,0,0,0-.625,18.085c2.3-1.279,4.435-2.567,6.413-3.856a49.814,49.814,0,0,1,.989-16.643c.17-.062.341-.122.51-.184.257-.094.514-.192.771-.288a48.433,48.433,0,0,0-1.2,16.415,82.88,82.88,0,0,0,7.438-5.6,35.788,35.788,0,0,1-1.546-12.676c.388-.165.776-.33,1.162-.5a34.516,34.516,0,0,0,1.339,12.36c1.4-1.233,2.673-2.449,3.833-3.645a30.908,30.908,0,0,1-1.7-10.365c.382-.194.763-.389,1.141-.591a29.681,29.681,0,0,0,1.452,10.019,53.4,53.4,0,0,0,4.147-5.027L419.5,377.4c.358-.246.715-.5,1.067-.752l.669,7.249c4.15-6.194,5.183-10.987,5.435-12.757.216-.243.436-.479.647-.729q-.009,1.794-.052,3.59a35.514,35.514,0,0,1-4.875,10.455,18.344,18.344,0,0,0,4.395-.7c-.036.452-.076.9-.116,1.354a19.173,19.173,0,0,1-4.734.644c-.145,0-.289,0-.434,0a53.92,53.92,0,0,1-4.721,5.726,24.863,24.863,0,0,0,9.143.309c-.06.438-.124.876-.189,1.313a25.936,25.936,0,0,1-3.383.275,25.458,25.458,0,0,1-6.612-.824c-1.159,1.172-2.422,2.363-3.813,3.569a21.393,21.393,0,0,0,12.6,3.755q-.138.655-.284,1.31l-.067,0a22.483,22.483,0,0,1-13.227-4.248,85.278,85.278,0,0,1-7.458,5.571,39.976,39.976,0,0,0,18.68,6.476q-.193.623-.4,1.241a41.066,41.066,0,0,1-19.419-6.983c-2.122,1.374-4.4,2.748-6.892,4.112a53.23,53.23,0,0,0,22.593,12.217c-.185.39-.366.783-.558,1.169a54.364,54.364,0,0,1-23.078-12.683.573.573,0,0,1-.061-.083q-3.014,1.677-5.763,3.382a37.474,37.474,0,0,0,13.274,12.3,43.921,43.921,0,0,0,11.566,4.192c-.253.386-.519.76-.78,1.139a44.748,44.748,0,0,1-11.269-4.171,38.7,38.7,0,0,1-13.8-12.834q-3.968,2.5-7.4,5.009a43.482,43.482,0,0,0,14.583,11.852,100.8,100.8,0,0,0,13.71,5.558c-.3.348-.613.686-.923,1.025a99.124,99.124,0,0,1-13.252-5.414A44.572,44.572,0,0,1,379.233,417.7c-2.657,1.973-5.082,3.927-7.268,5.827a60.311,60.311,0,0,0,28.852,18.06c-.428.322-.857.642-1.295.947a61.58,61.58,0,0,1-28.458-18.209c-2.643,2.347-4.948,4.606-6.922,6.707a55.38,55.38,0,0,0,27.819,15.577c-.76.283-1.535.539-2.327.762a56.765,56.765,0,0,1-26.311-15.45,83.6,83.6,0,0,0-6.352,7.78A10.958,10.958,0,0,1,356.442,438.415Z" fill="#d9d9d9" style="mix-blend-mode: multiply;isolation: isolate"/>
    </g>
    <g id="Grupo_125" data-name="Grupo 125">
      <path id="Caminho_415" data-name="Caminho 415" d="M346.576,397.171c5.416-7.067,12.518-12.13,19.212-17.608s13.266-11.737,16.862-20.168c3.508,12.572,5.786,25.793,4.762,38.929s-5.608,26.237-14.155,35.171c-7.164,7.488-19.393,11.124-29.619,9.534-3.568-.555-6.341-3.8-6.843-7.845C335.129,421.725,338.7,407.447,346.576,397.171Z" fill="url(#linear-gradient-14)"/>
      <path id="Caminho_416" data-name="Caminho 416" d="M338.564,439.737A86.367,86.367,0,0,1,342,431.454a56.119,56.119,0,0,1-4.555-13.475q.258-1.31.576-2.6a55.38,55.38,0,0,0,4.565,14.861c1.206-2.459,2.654-5.151,4.378-8.027a59.206,59.206,0,0,1-5.2-17.2c.268-.548.536-1.1.823-1.631a58.159,58.159,0,0,0,5.026,17.755c1.377-2.242,2.924-4.589,4.656-7.021a82.109,82.109,0,0,1-5.049-17.726q.426-.533.864-1.05a81.06,81.06,0,0,0,4.9,17.775q2.3-3.162,5.03-6.493a70.5,70.5,0,0,1-4.415-16.978c.3-.278.614-.548.922-.821a69.439,69.439,0,0,0,4.253,16.888c1.413-1.687,2.908-3.4,4.5-5.131a48.139,48.139,0,0,1-4.045-15.741c.317-.257.634-.515.952-.771a46.993,46.993,0,0,0,3.861,15.662c1.66-1.815,3.17-3.583,4.547-5.3a43.965,43.965,0,0,1-3.2-14.544c.131-.106.263-.21.392-.317.2-.161.393-.325.59-.487a42.865,42.865,0,0,0,2.964,14.413,83.577,83.577,0,0,0,5-7.119,30.36,30.36,0,0,1-4.4-10.357c.292-.262.583-.525.872-.792a29.38,29.38,0,0,0,4.149,10.151c.9-1.494,1.691-2.931,2.392-4.317a26,26,0,0,1-3.968-8.333c.279-.286.558-.572.832-.863a25.049,25.049,0,0,0,3.677,8.114,53.46,53.46,0,0,0,2.324-5.6l-2.555-6.556q.371-.483.73-.977l2.334,5.99c2.044-6.6,1.762-11.018,1.548-12.611.126-.275.257-.546.376-.826q.429,1.536.828,3.086a33.992,33.992,0,0,1-1.628,10.468,17.728,17.728,0,0,0,3.589-1.973c.079.4.154.8.23,1.194a18.426,18.426,0,0,1-3.893,2.033c-.123.047-.248.089-.372.132a53.541,53.541,0,0,1-2.645,6.375,23.082,23.082,0,0,0,7.893-2.6c.056.393.108.787.159,1.181a24.524,24.524,0,0,1-2.827,1.295,23.153,23.153,0,0,1-5.855,1.365c-.707,1.365-1.5,2.779-2.394,4.246a18.749,18.749,0,0,0,11.692-.735c.028.4.052.806.075,1.21l-.056.023a19.617,19.617,0,0,1-12.345.507,86.327,86.327,0,0,1-5.024,7.1,34.675,34.675,0,0,0,17.549-.309c-.009.4-.023.79-.038,1.185a35.521,35.521,0,0,1-18.3.107c-1.481,1.84-3.1,3.729-4.895,5.675a44.657,44.657,0,0,0,22.291,3.375c-.064.392-.123.784-.193,1.174a45.542,45.542,0,0,1-22.819-3.622.454.454,0,0,1-.072-.052q-2.171,2.377-4.107,4.7a30.317,30.317,0,0,0,14.341,6.362,37.893,37.893,0,0,0,10.91-.035c-.122.41-.26.813-.39,1.219a38.607,38.607,0,0,1-10.651-.04,31.312,31.312,0,0,1-14.919-6.657q-2.785,3.381-5.11,6.6a35.4,35.4,0,0,0,15.353,5.572,86.415,86.415,0,0,0,13.075.461c-.174.393-.357.779-.54,1.166a84.831,84.831,0,0,1-12.649-.482,36.276,36.276,0,0,1-15.887-5.809c-1.794,2.52-3.392,4.95-4.8,7.259a50.056,50.056,0,0,0,29.063,6.414c-.288.409-.577.817-.877,1.215a51.022,51.022,0,0,1-28.763-6.665c-1.69,2.835-3.112,5.488-4.289,7.9a46.364,46.364,0,0,0,27.576,4.614q-.871.72-1.8,1.38a47.329,47.329,0,0,1-26.256-4.977,83.178,83.178,0,0,0-3.542,8.642A8.818,8.818,0,0,1,338.564,439.737Z" fill="#d9d9d9" style="mix-blend-mode: multiply;isolation: isolate"/>
    </g>
  </g>
</svg>
