<svg xmlns="http://www.w3.org/2000/svg" width="483.422" height="303.233" viewBox="0 0 483.422 303.233">
  <g id="Grupo_24" data-name="Grupo 24" transform="translate(-132.252 -110.409)">
    <g id="Grupo_9" data-name="Grupo 9">
      <g id="Grupo_8" data-name="Grupo 8">
        <g id="Grupo_2" data-name="Grupo 2">
          <path id="Caminho_1" data-name="Caminho 1" d="M592.914,296.364a55.6,55.6,0,0,0,1.572-6.324l-35.042,41.942a55.816,55.816,0,0,0,5.961-2.692Z" fill="#3c286d"/>
          <path id="Caminho_2" data-name="Caminho 2" d="M595.453,279.687v-.049q0-2.123-.157-4.206l-50.08,59.941q2.129-.219,4.208-.595Z" fill="#3c286d"/>
          <path id="Caminho_3" data-name="Caminho 3" d="M594.154,267.6q-.378-1.727-.858-3.414l-59.488,71.2q1.742.174,3.514.236Z" fill="#3c286d"/>
          <path id="Caminho_4" data-name="Caminho 4" d="M591.008,257.731q-.618-1.453-1.318-2.864l-65.708,78.647q1.512.432,3.059.78Z" fill="#3c286d"/>
          <path id="Caminho_5" data-name="Caminho 5" d="M586.59,249.382q-.8-1.247-1.667-2.446l-69.6,83.3q1.335.636,2.707,1.2Z" fill="#3c286d"/>
          <path id="Caminho_6" data-name="Caminho 6" d="M507.647,325.79q1.179.814,2.4,1.568l71.106-85.106q-.958-1.068-1.968-2.087Z" fill="#3c286d"/>
          <path id="Caminho_7" data-name="Caminho 7" d="M574.815,236.2q-1.1-.9-2.254-1.744l-71.706,85.825q1.033.981,2.117,1.909Z" fill="#3c286d"/>
          <path id="Caminho_8" data-name="Caminho 8" d="M567.6,231.2q-1.252-.73-2.544-1.4l-70.109,83.915q.884,1.152,1.825,2.256Z" fill="#3c286d"/>
          <path id="Caminho_9" data-name="Caminho 9" d="M559.463,227.3q-1.416-.543-2.867-1.01l-66.614,79.73q.717,1.342,1.5,2.643Z" fill="#3c286d"/>
          <path id="Caminho_10" data-name="Caminho 10" d="M550.275,224.66q-1.614-.316-3.26-.54l-60.882,72.87q.513,1.576,1.113,3.111Z" fill="#3c286d"/>
          <path id="Caminho_11" data-name="Caminho 11" d="M539.759,223.61c-.113,0-.224,0-.337,0-1.163,0-2.317.04-3.462.11l-52.188,62.463q.222,1.9.567,3.763Z" fill="#3c286d"/>
          <path id="Caminho_12" data-name="Caminho 12" d="M527.259,224.934q-2.433.538-4.784,1.284l-38.628,46.233q-.31,2.435-.408,4.931Z" fill="#3c286d"/>
          <path id="Caminho_13" data-name="Caminho 13" d="M510.01,231.941a56.315,56.315,0,0,0-12.417,10.421l-2.367,2.832a55.952,55.952,0,0,0-7.99,14.006Z" fill="#3c286d"/>
        </g>
        <g id="Grupo_3" data-name="Grupo 3">
          <path id="Caminho_14" data-name="Caminho 14" d="M417.511,379.449a48.409,48.409,0,0,0,1.369-5.507l-30.517,36.526a48.315,48.315,0,0,0,5.191-2.345Z" fill="#3c286d"/>
          <path id="Caminho_15" data-name="Caminho 15" d="M419.722,364.926v-.043q0-1.848-.137-3.663l-43.613,52.2q1.854-.19,3.665-.518Z" fill="#3c286d"/>
          <path id="Caminho_16" data-name="Caminho 16" d="M418.591,354.4q-.328-1.5-.747-2.973l-51.806,62.006q1.517.151,3.06.206Z" fill="#3c286d"/>
          <path id="Caminho_17" data-name="Caminho 17" d="M415.852,345.8q-.54-1.266-1.148-2.494L357.48,411.8q1.317.377,2.664.68Z" fill="#3c286d"/>
          <path id="Caminho_18" data-name="Caminho 18" d="M412,338.534c-.465-.723-.951-1.433-1.452-2.13l-60.61,72.544q1.163.553,2.358,1.047Z" fill="#3c286d"/>
          <path id="Caminho_19" data-name="Caminho 19" d="M343.255,405.076q1.026.708,2.091,1.365l61.923-74.116q-.834-.932-1.713-1.818Z" fill="#3c286d"/>
          <path id="Caminho_20" data-name="Caminho 20" d="M401.749,327.055q-.961-.783-1.962-1.519L337.34,400.279q.9.855,1.843,1.662Z" fill="#3c286d"/>
          <path id="Caminho_21" data-name="Caminho 21" d="M395.466,322.7q-1.09-.636-2.215-1.217l-61.057,73.078q.771,1,1.59,1.966Z" fill="#3c286d"/>
          <path id="Caminho_22" data-name="Caminho 22" d="M388.38,319.3q-1.233-.472-2.5-.879L327.871,387.86q.624,1.169,1.309,2.3Z" fill="#3c286d"/>
          <path id="Caminho_23" data-name="Caminho 23" d="M380.378,317.005q-1.405-.276-2.839-.471l-53.02,63.461q.447,1.373.969,2.709Z" fill="#3c286d"/>
          <path id="Caminho_24" data-name="Caminho 24" d="M371.22,316.09c-.1,0-.2,0-.293,0-1.013,0-2.018.034-3.016.1l-45.448,54.4q.192,1.656.494,3.278Z" fill="#3c286d"/>
          <path id="Caminho_25" data-name="Caminho 25" d="M360.334,317.243q-2.12.469-4.166,1.118l-33.64,40.263q-.27,2.119-.355,4.294Z" fill="#3c286d"/>
          <path id="Caminho_26" data-name="Caminho 26" d="M345.313,323.345a49,49,0,0,0-10.814,9.076l-2.061,2.466a48.736,48.736,0,0,0-6.959,12.2Z" fill="#3c286d"/>
        </g>
        <circle id="Elipse_1" data-name="Elipse 1" cx="64.029" cy="64.029" r="64.029" transform="translate(351.232 123.264)" fill="#3c286d"/>
        <circle id="Elipse_2" data-name="Elipse 2" cx="33.443" cy="33.443" r="33.443" transform="translate(283.9 280.501) rotate(-76.909)" fill="#3c286d"/>
        <circle id="Elipse_3" data-name="Elipse 3" cx="23.141" cy="23.141" r="23.141" transform="translate(233.195 336.404) rotate(-45)" fill="#3c286d"/>
        <circle id="Elipse_4" data-name="Elipse 4" cx="25.421" cy="25.421" r="25.421" transform="translate(420.742 301.937)" fill="#3c286d"/>
        <circle id="Elipse_5" data-name="Elipse 5" cx="11.842" cy="11.842" r="11.842" transform="matrix(0.242, -0.97, 0.97, 0.242, 220.874, 374.608)" fill="#3c286d"/>
        <circle id="Elipse_6" data-name="Elipse 6" cx="13.388" cy="13.388" r="13.388" transform="translate(510.99 140.055)" fill="#3c286d"/>
        <circle id="Elipse_7" data-name="Elipse 7" cx="21.286" cy="21.286" r="21.286" transform="translate(555.466 208.579) rotate(-45)" fill="#3c286d"/>
        <circle id="Elipse_8" data-name="Elipse 8" cx="27.302" cy="27.302" r="27.302" transform="translate(143.6 273.269)" fill="#3c286d"/>
        <g id="Grupo_5" data-name="Grupo 5">
          <g id="Grupo_4" data-name="Grupo 4">
            <path id="Caminho_27" data-name="Caminho 27" d="M174.083,205l26.89-32.184A54.44,54.44,0,0,0,174.083,205Z" fill="#3c286d"/>
            <path id="Caminho_28" data-name="Caminho 28" d="M211.364,168.715l-39.445,47.209c-.156,1.676-.239,3.373-.239,5.09,0,.64.015,1.276.037,1.91l46.492-55.644A54.1,54.1,0,0,0,211.364,168.715Z" fill="#3c286d"/>
            <path id="Caminho_29" data-name="Caminho 29" d="M231.084,166.967c-1.684-.157-3.39-.242-5.115-.242-.112,0-.222,0-.333,0l-53.154,63.617a53.909,53.909,0,0,0,1.2,5.32Z" fill="#3c286d"/>
            <path id="Caminho_30" data-name="Caminho 30" d="M241.91,169.106q-2.281-.7-4.644-1.2l-61.553,73.669q.912,2.228,2.01,4.352Z" fill="#3c286d"/>
            <path id="Caminho_31" data-name="Caminho 31" d="M251.285,172.982q-1.974-1.042-4.038-1.926L180.6,250.827q1.233,1.872,2.61,3.635Z" fill="#3c286d"/>
            <path id="Caminho_32" data-name="Caminho 32" d="M255.941,175.747l-69.188,82.808q1.5,1.569,3.129,3.013l69.582-83.28Q257.757,176.949,255.941,175.747Z" fill="#3c286d"/>
            <path id="Caminho_33" data-name="Caminho 33" d="M266.526,184.931q-1.449-1.628-3.023-3.139l-69.459,83.132q1.759,1.281,3.621,2.424Z" fill="#3c286d"/>
            <path id="Caminho_34" data-name="Caminho 34" d="M272.445,192.944q-1.173-1.938-2.5-3.765l-67.493,80.779q2.031.978,4.155,1.786Z" fill="#3c286d"/>
            <path id="Caminho_35" data-name="Caminho 35" d="M277.034,202.548q-.836-2.31-1.872-4.518L212.1,273.511q2.352.621,4.785,1.031Z" fill="#3c286d"/>
            <path id="Caminho_36" data-name="Caminho 36" d="M278.855,208.706l-55.587,66.53q1.342.066,2.7.067c.992,0,1.978-.029,2.957-.081l50.916-60.939A53.884,53.884,0,0,0,278.855,208.706Z" fill="#3c286d"/>
            <path id="Caminho_37" data-name="Caminho 37" d="M279.56,229.717a54.625,54.625,0,0,0,.683-7.576l-43.528,52.1a53.713,53.713,0,0,0,7.337-2.023Z" fill="#3c286d"/>
            <path id="Caminho_38" data-name="Caminho 38" d="M275.825,242.525l-19.808,23.706A54.48,54.48,0,0,0,275.825,242.525Z" fill="#3c286d"/>
          </g>
        </g>
        <g id="Grupo_7" data-name="Grupo 7">
          <g id="Grupo_6" data-name="Grupo 6">
            <path id="Caminho_39" data-name="Caminho 39" d="M287.433,132.069l15.219-18.215A30.81,30.81,0,0,0,287.433,132.069Z" fill="#3c286d"/>
            <path id="Caminho_40" data-name="Caminho 40" d="M308.532,111.536l-22.323,26.718q-.134,1.422-.136,2.88c0,.362.009.722.021,1.081l26.313-31.492A30.438,30.438,0,0,0,308.532,111.536Z" fill="#3c286d"/>
            <path id="Caminho_41" data-name="Caminho 41" d="M319.693,110.546c-.953-.089-1.918-.137-2.895-.137-.063,0-.125,0-.188,0l-30.083,36a30.287,30.287,0,0,0,.68,3.011Z" fill="#3c286d"/>
            <path id="Caminho_42" data-name="Caminho 42" d="M325.82,111.757q-1.29-.4-2.628-.679l-34.836,41.693q.516,1.26,1.137,2.463Z" fill="#3c286d"/>
            <path id="Caminho_43" data-name="Caminho 43" d="M331.126,113.95q-1.117-.589-2.285-1.09l-37.722,45.147q.7,1.061,1.477,2.057Z" fill="#3c286d"/>
            <path id="Caminho_44" data-name="Caminho 44" d="M333.761,115.515,294.6,162.381q.85.888,1.77,1.705l39.381-47.133Q334.789,116.2,333.761,115.515Z" fill="#3c286d"/>
            <path id="Caminho_45" data-name="Caminho 45" d="M339.752,120.713c-.547-.614-1.117-1.208-1.711-1.776L298.73,165.985q1,.726,2.05,1.372Z" fill="#3c286d"/>
            <path id="Caminho_46" data-name="Caminho 46" d="M343.1,125.248q-.664-1.1-1.416-2.131l-38.2,45.718q1.15.553,2.352,1.01Z" fill="#3c286d"/>
            <path id="Caminho_47" data-name="Caminho 47" d="M345.7,130.684q-.474-1.308-1.06-2.557l-35.692,42.718q1.331.351,2.708.584Z" fill="#3c286d"/>
            <path id="Caminho_48" data-name="Caminho 48" d="M346.73,134.169l-31.46,37.652q.759.037,1.528.038c.562,0,1.12-.016,1.674-.045l28.816-34.489A30.645,30.645,0,0,0,346.73,134.169Z" fill="#3c286d"/>
            <path id="Caminho_49" data-name="Caminho 49" d="M347.128,146.06a30.882,30.882,0,0,0,.387-4.288L322.88,171.256a30.376,30.376,0,0,0,4.153-1.145Z" fill="#3c286d"/>
            <path id="Caminho_50" data-name="Caminho 50" d="M345.015,153.308,333.8,166.725A30.841,30.841,0,0,0,345.015,153.308Z" fill="#3c286d"/>
          </g>
        </g>
        <circle id="Elipse_9" data-name="Elipse 9" cx="11.703" cy="11.703" r="11.703" transform="matrix(0.229, -0.974, 0.974, 0.229, 255.492, 157.089)" fill="#3c286d"/>
      </g>
    </g>
    <g id="Grupo_23" data-name="Grupo 23">
      <circle id="Elipse_10" data-name="Elipse 10" cx="7.753" cy="7.753" r="7.753" transform="translate(132.252 268.672) rotate(-45)" fill="#fe4396"/>
      <circle id="Elipse_11" data-name="Elipse 11" cx="2.163" cy="2.163" r="2.163" transform="translate(148.807 276.915)" fill="#efecf7"/>
      <path id="Caminho_51" data-name="Caminho 51" d="M205.334,330.258a2.163,2.163,0,1,1,.626-2.993A2.163,2.163,0,0,1,205.334,330.258Z" fill="#25c7e4"/>
      <g id="Grupo_10" data-name="Grupo 10">
        <circle id="Elipse_12" data-name="Elipse 12" cx="2.511" cy="2.511" r="2.511" transform="translate(578.98 314.612)" fill="#fdf9fd"/>
        <circle id="Elipse_13" data-name="Elipse 13" cx="2.511" cy="2.511" r="2.511" transform="translate(587.992 314.612)" fill="#fdf9fd"/>
        <circle id="Elipse_14" data-name="Elipse 14" cx="2.511" cy="2.511" r="2.511" transform="translate(597.005 314.612)" fill="#fdf9fd"/>
        <circle id="Elipse_15" data-name="Elipse 15" cx="2.511" cy="2.511" r="2.511" transform="translate(578.98 323.624)" fill="#fdf9fd"/>
        <circle id="Elipse_16" data-name="Elipse 16" cx="2.511" cy="2.511" r="2.511" transform="translate(587.992 323.624)" fill="#fdf9fd"/>
        <circle id="Elipse_17" data-name="Elipse 17" cx="2.511" cy="2.511" r="2.511" transform="translate(597.005 323.624)" fill="#fdf9fd"/>
      </g>
      <g id="Grupo_11" data-name="Grupo 11">
        <circle id="Elipse_18" data-name="Elipse 18" cx="2.511" cy="2.511" r="2.511" transform="translate(200.765 179.058)" fill="#fdf9fd"/>
        <circle id="Elipse_19" data-name="Elipse 19" cx="2.511" cy="2.511" r="2.511" transform="translate(200.765 188.07)" fill="#fdf9fd"/>
        <circle id="Elipse_20" data-name="Elipse 20" cx="2.511" cy="2.511" r="2.511" transform="translate(200.765 197.083)" fill="#fdf9fd"/>
        <circle id="Elipse_21" data-name="Elipse 21" cx="2.512" cy="2.512" r="2.512" transform="translate(191.753 179.058)" fill="#fdf9fd"/>
        <circle id="Elipse_22" data-name="Elipse 22" cx="2.512" cy="2.512" r="2.512" transform="translate(191.753 188.07)" fill="#fdf9fd"/>
        <circle id="Elipse_23" data-name="Elipse 23" cx="2.512" cy="2.512" r="2.512" transform="translate(191.753 197.083)" fill="#fdf9fd"/>
      </g>
      <circle id="Elipse_24" data-name="Elipse 24" cx="6.027" cy="6.027" r="6.027" transform="translate(602.671 299.375)" fill="#25c7e4"/>
      <path id="Caminho_52" data-name="Caminho 52" d="M316.736,132.751a2.867,2.867,0,1,1-2.868,2.868,2.871,2.871,0,0,1,2.868-2.868m0-2a4.867,4.867,0,1,0,4.868,4.868,4.868,4.868,0,0,0-4.868-4.868Z" fill="#efecf7"/>
      <path id="Caminho_53" data-name="Caminho 53" d="M185.468,169.675a2.868,2.868,0,1,1-2.868,2.868,2.872,2.872,0,0,1,2.868-2.868m0-2a4.868,4.868,0,1,0,4.868,4.868,4.867,4.867,0,0,0-4.868-4.868Z" fill="#00aeee"/>
      <path id="Caminho_54" data-name="Caminho 54" d="M389.733,303.95h0a2.841,2.841,0,0,1,1.288.308,2.869,2.869,0,0,1-1.3,5.43,2.832,2.832,0,0,1-1.288-.309,2.868,2.868,0,0,1,1.3-5.429m0-2a4.869,4.869,0,1,0,2.19.523,4.867,4.867,0,0,0-2.19-.523Z" fill="#efecf7"/>
      <path id="Caminho_55" data-name="Caminho 55" d="M535.352,356.727h0a2.868,2.868,0,1,1-2.565,1.576,2.847,2.847,0,0,1,2.565-1.576m0-2a4.869,4.869,0,1,0,2.19.523,4.867,4.867,0,0,0-2.19-.523Z" fill="#fe4396"/>
      <path id="Caminho_56" data-name="Caminho 56" d="M472.174,375.065a5.276,5.276,0,1,1-5.275,5.276,5.276,5.276,0,0,1,5.275-5.276m0-1.751a7.027,7.027,0,1,0,7.027,7.027,7.035,7.035,0,0,0-7.027-7.027Z" fill="#25c7e4"/>
      <path id="Caminho_57" data-name="Caminho 57" d="M537.39,152.519l1.308,3.526.239.645.645.239,3.526,1.308-3.526,1.308-.645.239-.239.646-1.308,3.526-1.308-3.526-.239-.646-.646-.239-3.526-1.308,3.526-1.308.646-.239.239-.645,1.308-3.526m0-4.314-2.714,7.318-7.318,2.714,7.318,2.714,2.714,7.318,2.714-7.318,7.318-2.714-7.318-2.714-2.714-7.318Z" fill="#fdf9fd"/>
      <path id="Caminho_58" data-name="Caminho 58" d="M299.514,387.228l1.529,4.121.137.37.37.137,4.122,1.529-4.122,1.529-.37.137-.137.37-1.529,4.122-1.529-4.122-.137-.37-.37-.137-4.122-1.529,4.122-1.529.37-.137.137-.37,1.529-4.121m0-2.475-2.335,6.3-6.3,2.335,6.3,2.335,2.335,6.3,2.335-6.3,6.3-2.335-6.3-2.335-2.335-6.3Z" fill="#fdf9fd"/>
      <path id="Caminho_59" data-name="Caminho 59" d="M215.117,323.814l6.3-2.335-6.3-2.335-2.335-6.3-2.335,6.3-6.3,2.335,6.3,2.335,2.335,6.3Z" fill="#fdf9fd"/>
      <path id="Caminho_60" data-name="Caminho 60" d="M549.832,166.929a2.41,2.41,0,1,1-2.41-2.41A2.41,2.41,0,0,1,549.832,166.929Z" fill="#25c7e4"/>
      <circle id="Elipse_25" data-name="Elipse 25" cx="2.808" cy="2.808" r="2.808" transform="translate(591.118 218.182)" fill="#fdf9fd"/>
      <circle id="Elipse_26" data-name="Elipse 26" cx="2.411" cy="2.411" r="2.411" transform="translate(305.735 385.006)" fill="#25c7e4"/>
      <path id="Caminho_61" data-name="Caminho 61" d="M382.839,301.122a2.41,2.41,0,1,1-2.411-2.411A2.41,2.41,0,0,1,382.839,301.122Z" fill="#fe4396"/>
      <circle id="Elipse_27" data-name="Elipse 27" cx="2.411" cy="2.411" r="2.411" transform="translate(541.058 363.429)" fill="#3c286d"/>
      <path id="Caminho_62" data-name="Caminho 62" d="M450.978,135.242a2.411,2.411,0,1,1-2.411-2.411A2.411,2.411,0,0,1,450.978,135.242Z" fill="#25c7e4"/>
      <path id="Caminho_63" data-name="Caminho 63" d="M474.853,394.167a2.41,2.41,0,1,1-2.411-2.411A2.41,2.41,0,0,1,474.853,394.167Z" fill="#3c286d"/>
      <g id="Grupo_12" data-name="Grupo 12">
        <path id="Caminho_64" data-name="Caminho 64" d="M449.945,387.074h0a1.523,1.523,0,0,1-1.522-1.522v-3.165a1.523,1.523,0,0,1,1.522-1.522h0a1.522,1.522,0,0,1,1.522,1.522v3.165A1.522,1.522,0,0,1,449.945,387.074Z" fill="#fdf9fd"/>
        <path id="Caminho_65" data-name="Caminho 65" d="M449.945,400.081h0a1.522,1.522,0,0,0-1.522,1.522v3.165a1.523,1.523,0,0,0,1.522,1.522h0a1.522,1.522,0,0,0,1.522-1.522V401.6A1.521,1.521,0,0,0,449.945,400.081Z" fill="#fdf9fd"/>
        <path id="Caminho_66" data-name="Caminho 66" d="M456.449,393.577h0a1.521,1.521,0,0,1,1.522-1.521h3.165a1.521,1.521,0,0,1,1.521,1.521h0a1.521,1.521,0,0,1-1.521,1.522h-3.165A1.521,1.521,0,0,1,456.449,393.577Z" fill="#fdf9fd"/>
        <path id="Caminho_67" data-name="Caminho 67" d="M443.442,393.577h0a1.522,1.522,0,0,0-1.522-1.521h-3.165a1.521,1.521,0,0,0-1.522,1.521h0a1.521,1.521,0,0,0,1.522,1.522h3.165A1.522,1.522,0,0,0,443.442,393.577Z" fill="#fdf9fd"/>
        <path id="Caminho_68" data-name="Caminho 68" d="M454.544,388.979h0a1.523,1.523,0,0,1,0-2.153l2.238-2.238a1.522,1.522,0,0,1,2.152,0h0a1.523,1.523,0,0,1,0,2.153l-2.238,2.238A1.522,1.522,0,0,1,454.544,388.979Z" fill="#fdf9fd"/>
        <path id="Caminho_69" data-name="Caminho 69" d="M445.346,398.176h0a1.522,1.522,0,0,0-2.152,0l-2.238,2.238a1.522,1.522,0,0,0,0,2.152h0a1.522,1.522,0,0,0,2.152,0l2.238-2.238A1.52,1.52,0,0,0,445.346,398.176Z" fill="#fdf9fd"/>
        <path id="Caminho_70" data-name="Caminho 70" d="M454.544,398.176h0a1.522,1.522,0,0,1,2.152,0l2.238,2.238a1.522,1.522,0,0,1,0,2.152h0a1.522,1.522,0,0,1-2.152,0l-2.238-2.238A1.522,1.522,0,0,1,454.544,398.176Z" fill="#fdf9fd"/>
        <path id="Caminho_71" data-name="Caminho 71" d="M445.346,388.979h0a1.522,1.522,0,0,0,0-2.153l-2.238-2.238a1.522,1.522,0,0,0-2.152,0h0a1.523,1.523,0,0,0,0,2.153l2.238,2.238A1.522,1.522,0,0,0,445.346,388.979Z" fill="#fdf9fd"/>
        <path id="Caminho_72" data-name="Caminho 72" d="M451.467,393.577a1.522,1.522,0,1,1-1.522-1.521A1.521,1.521,0,0,1,451.467,393.577Z" fill="#fdf9fd"/>
      </g>
      <g id="Grupo_22" data-name="Grupo 22">
        <g id="Grupo_21" data-name="Grupo 21">
          <g id="Grupo_13" data-name="Grupo 13">
            <path id="Caminho_73" data-name="Caminho 73" d="M337.046,119.192h0a1.651,1.651,0,0,1-1.651-1.651v-3.433a1.652,1.652,0,0,1,1.651-1.651h0a1.651,1.651,0,0,1,1.651,1.651v3.433A1.651,1.651,0,0,1,337.046,119.192Z" fill="#fe4396"/>
          </g>
          <g id="Grupo_14" data-name="Grupo 14">
            <path id="Caminho_74" data-name="Caminho 74" d="M337.046,133.3h0a1.651,1.651,0,0,0-1.651,1.651v3.433a1.651,1.651,0,0,0,1.651,1.651h0a1.651,1.651,0,0,0,1.651-1.651v-3.433A1.651,1.651,0,0,0,337.046,133.3Z" fill="#fe4396"/>
          </g>
          <g id="Grupo_15" data-name="Grupo 15">
            <path id="Caminho_75" data-name="Caminho 75" d="M344.1,126.246h0a1.651,1.651,0,0,1,1.651-1.651h3.433a1.651,1.651,0,0,1,1.651,1.651h0a1.651,1.651,0,0,1-1.651,1.651h-3.433A1.651,1.651,0,0,1,344.1,126.246Z" fill="#fe4396"/>
          </g>
          <g id="Grupo_16" data-name="Grupo 16">
            <path id="Caminho_76" data-name="Caminho 76" d="M329.992,126.246h0a1.651,1.651,0,0,0-1.651-1.651h-3.433a1.651,1.651,0,0,0-1.65,1.651h0a1.651,1.651,0,0,0,1.65,1.651h3.433A1.651,1.651,0,0,0,329.992,126.246Z" fill="#fe4396"/>
          </g>
          <g id="Grupo_17" data-name="Grupo 17">
            <path id="Caminho_77" data-name="Caminho 77" d="M342.034,121.258h0a1.651,1.651,0,0,1,0-2.334l2.428-2.428a1.649,1.649,0,0,1,2.334,0h0a1.649,1.649,0,0,1,0,2.334l-2.427,2.428A1.651,1.651,0,0,1,342.034,121.258Z" fill="#fe4396"/>
          </g>
          <g id="Grupo_18" data-name="Grupo 18">
            <path id="Caminho_78" data-name="Caminho 78" d="M332.058,131.234h0a1.651,1.651,0,0,0-2.334,0l-2.428,2.428a1.651,1.651,0,0,0,0,2.334h0a1.651,1.651,0,0,0,2.335,0l2.427-2.427A1.651,1.651,0,0,0,332.058,131.234Z" fill="#fe4396"/>
          </g>
          <path id="Caminho_79" data-name="Caminho 79" d="M342.034,131.234h0a1.653,1.653,0,0,1,2.335,0l2.427,2.428a1.649,1.649,0,0,1,0,2.334h0a1.649,1.649,0,0,1-2.334,0l-2.428-2.427A1.653,1.653,0,0,1,342.034,131.234Z" fill="#fe4396"/>
          <g id="Grupo_19" data-name="Grupo 19">
            <path id="Caminho_80" data-name="Caminho 80" d="M332.058,121.258h0a1.65,1.65,0,0,0,0-2.334l-2.427-2.428a1.651,1.651,0,0,0-2.335,0h0a1.651,1.651,0,0,0,0,2.334l2.428,2.428A1.65,1.65,0,0,0,332.058,121.258Z" fill="#fe4396"/>
          </g>
          <g id="Grupo_20" data-name="Grupo 20">
            <path id="Caminho_81" data-name="Caminho 81" d="M338.7,126.246a1.651,1.651,0,1,1-1.651-1.651A1.651,1.651,0,0,1,338.7,126.246Z" fill="#fe4396"/>
          </g>
        </g>
      </g>
      <path id="Caminho_82" data-name="Caminho 82" d="M586.724,223.771a3.521,3.521,0,0,0-2.521,1.039L583,226.017l-1.2-1.2a3.566,3.566,0,1,0-5.043,5.042l1.2,1.2-1.206,1.206a3.569,3.569,0,0,0,5.048,5.048L583,236.108l1.2,1.2a3.566,3.566,0,1,0,5.042-5.043l-1.2-1.2,1.207-1.207a3.566,3.566,0,0,0-2.527-6.087Zm1.445,5.005-1.207,1.207-1.082,1.082,1.082,1.082,1.2,1.2a2.035,2.035,0,1,1-2.878,2.879l-1.2-1.2L583,233.944l-1.082,1.082-1.206,1.206a2.039,2.039,0,0,1-2.884-2.884l1.206-1.206,1.083-1.082-1.083-1.083-1.2-1.2a2.035,2.035,0,0,1,2.879-2.878l1.2,1.2L583,228.181l1.082-1.082,1.207-1.207a2.039,2.039,0,0,1,2.884,2.884Z" fill="#fe4396"/>
      <path id="Caminho_83" data-name="Caminho 83" d="M440.979,137.653a3.521,3.521,0,0,0-2.521,1.039l-1.207,1.207-1.2-1.2a3.566,3.566,0,1,0-5.043,5.043l1.2,1.2L431,146.148a3.569,3.569,0,0,0,5.048,5.048l1.207-1.207,1.2,1.2a3.566,3.566,0,0,0,5.043-5.043l-1.2-1.2,1.206-1.207a3.566,3.566,0,0,0-2.527-6.087Zm1.445,5.005-1.207,1.207-1.082,1.082,1.082,1.082,1.2,1.2a2.036,2.036,0,0,1-2.879,2.879l-1.2-1.2-1.082-1.082-1.082,1.082-1.207,1.207a2.039,2.039,0,0,1-2.884-2.884l1.207-1.207,1.082-1.082-1.082-1.082-1.2-1.2a2.035,2.035,0,1,1,2.878-2.878l1.2,1.2,1.082,1.082,1.083-1.082,1.206-1.207a2.039,2.039,0,0,1,2.884,2.884Z" fill="#fe4396"/>
      <path id="Caminho_84" data-name="Caminho 84" d="M229.184,368.637a3.516,3.516,0,0,0-2.521,1.038l-1.207,1.207-1.2-1.2a3.566,3.566,0,1,0-5.043,5.043l1.2,1.2-1.206,1.206a3.569,3.569,0,0,0,5.048,5.048l1.207-1.206,1.2,1.2a3.566,3.566,0,0,0,5.043-5.043l-1.2-1.2,1.207-1.206a3.57,3.57,0,0,0,0-5.043A3.534,3.534,0,0,0,229.184,368.637Zm1.445,5-1.207,1.207-1.082,1.082,1.082,1.082,1.2,1.2a2.035,2.035,0,1,1-2.878,2.879l-1.2-1.2-1.082-1.082-1.083,1.082-1.206,1.206a2.039,2.039,0,0,1-2.884-2.884l1.207-1.206,1.082-1.082-1.082-1.082-1.2-1.2a2.035,2.035,0,1,1,2.879-2.878l1.2,1.2,1.082,1.082,1.082-1.082,1.207-1.207a2.039,2.039,0,0,1,2.884,2.884Z" fill="#fe4396"/>
    </g>
  </g>
</svg>
