<svg xmlns="http://www.w3.org/2000/svg" width="310.964" height="85.557" viewBox="0 0 310.964 85.557">
  <g id="Grupo_53" data-name="Grupo 53" transform="translate(-219.518 -207.384)">
    <g id="Grupo_43" data-name="Grupo 43">
      <path id="Caminho_90" data-name="Caminho 90" d="M281.271,272.845V291.3H231.335a9.663,9.663,0,0,1-9.663-9.663h0a11.313,11.313,0,0,1,3.586-8.264l27.205-25.439c6.581-6.112,7.521-9.873,7.521-13.281,0-5.288-3.526-8.462-10.577-8.462a17.228,17.228,0,0,0-10.712,3.539,9.6,9.6,0,0,1-10.571.776h0a9.656,9.656,0,0,1-.72-16.429c6.26-4.22,14.36-6.688,24.119-6.688,18.922,0,31.967,9.755,31.967,25.033,0,7.991-2.233,15.277-13.986,26.09l-15.512,14.338Z" fill="#efecf7"/>
      <path id="Caminho_91" data-name="Caminho 91" d="M310.055,250.163c0-27.148,15.278-42.779,36.315-42.779,20.919,0,36.2,15.631,36.2,42.779s-15.278,42.778-36.2,42.778C325.333,292.941,310.055,277.31,310.055,250.163Zm49.125,0c0-17.276-5.406-23.74-12.81-23.74-7.521,0-12.928,6.464-12.928,23.74S338.849,273.9,346.37,273.9C353.774,273.9,359.18,267.438,359.18,250.163Z" fill="#efecf7"/>
      <path id="Caminho_92" data-name="Caminho 92" d="M348.9,292.856c-.83.05-1.68.08-2.53.08-21.04,0-36.31-15.63-36.31-42.77,0-25.91,13.91-41.32,33.46-42.68a9.338,9.338,0,0,0-3.55,1.1c-.13.07-.26.14-.38.22-.28.17-.55.36-.81.55a7.079,7.079,0,0,0-.59.5,8.141,8.141,0,0,0-.91.95,2.874,2.874,0,0,0-.27.34,8.555,8.555,0,0,0-.72,1.09c-.14.25-.27.51-.39.77-.01.02-.01.03-.02.04-.11.25-.21.51-.3.77a8.441,8.441,0,0,0-.36,1.42,5.217,5.217,0,0,0-.1.69,9.321,9.321,0,0,0,.5,4.11l.07.19a9.589,9.589,0,0,0,9.84,6.23c-7.08.47-12.09,7.08-12.09,23.71,0,17.27,5.41,23.74,12.93,23.74.28,0,.55-.01.83-.03a9.452,9.452,0,0,1,9.71,6.13l.17.47c0,.01.01.03.01.04A9.288,9.288,0,0,1,348.9,292.856Z" fill="#25c7e4"/>
      <path id="Caminho_93" data-name="Caminho 93" d="M464.083,272.845V291.3H415.608a9.663,9.663,0,0,1-9.663-9.663h0a11.314,11.314,0,0,1,3.587-8.264l27.2-25.439c6.581-6.112,7.522-9.873,7.522-13.281,0-5.288-3.526-8.462-10.577-8.462a17.229,17.229,0,0,0-10.713,3.539,9.6,9.6,0,0,1-10.571.776h0a9.656,9.656,0,0,1-.72-16.429c6.261-4.22,14.361-6.688,24.12-6.688,18.921,0,31.966,9.755,31.966,25.033,0,7.991-2.233,15.277-13.985,26.09l-15.513,14.338Z" fill="#fe4396"/>
      <path id="Ret창ngulo_5" data-name="Ret창ngulo 5" d="M11.606,0h0A11.606,11.606,0,0,1,23.211,11.606V70.588A11.606,11.606,0,0,1,11.606,82.194h0A11.605,11.605,0,0,1,0,70.588V11.606A11.606,11.606,0,0,1,11.606,0Z" transform="translate(507.271 209.102)" fill="#25c7e4"/>
      <rect id="Ret창ngulo_6" data-name="Ret창ngulo 6" width="41.974" height="19.251" rx="9.626" transform="translate(488.508 209.029)" fill="#efecf7"/>
      <path id="Caminho_94" data-name="Caminho 94" d="M467.91,291.3H413.273a9.232,9.232,0,0,1-9.232-9.232h0a9.232,9.232,0,0,1,9.232-9.231H467.91a9.231,9.231,0,0,1,9.231,9.231h0A9.231,9.231,0,0,1,467.91,291.3Z" fill="#efecf7"/>
      <path id="Caminho_95" data-name="Caminho 95" d="M283.386,291.3H228.749a9.231,9.231,0,0,1-9.231-9.232h0a9.231,9.231,0,0,1,9.231-9.231h54.637a9.232,9.232,0,0,1,9.232,9.231h0A9.232,9.232,0,0,1,283.386,291.3Z" fill="#fe4396"/>
    </g>
    <g id="Grupo_50" data-name="Grupo 50">
      <g id="Grupo_49" data-name="Grupo 49">
        <g id="Grupo_45" data-name="Grupo 45">
          <g id="Grupo_44" data-name="Grupo 44">
            <path id="Caminho_96" data-name="Caminho 96" d="M369.315,221.235c-5.68-6.44-13.62-9.85-22.94-9.85-.8,0-1.67.03-2.65.1-.07.01-.14.01-.21.02-.38.03-.76.06-1.14.1l-.45.06c-.43.05-.81.1-1.18.16l-.33.06-.13.02c-.38.07-.76.14-1.13.22l-.25.05-.16.04q-.585.12-1.14.27l-.36.1c-.39.11-.77.22-1.15.34l-.11.04-.19.06c-.39.13-.78.27-1.17.41l-.2.08c-.48.19-.86.34-1.2.49l-.1.05a28.5,28.5,0,0,0-7.34,4.72l-.11.09c-.3.27-.59.56-.88.84l-.16.15-.05.06c-.28.27-.55.56-.81.84l-.15.16-.12.13c-.24.27-.49.56-.73.85l-.13.16a1.465,1.465,0,0,0-.16.19c-.23.28-.45.57-.67.87l-.11.14c-.06.09-.13.17-.19.26-.21.29-.42.59-.62.89l-.08.11c-.07.11-.15.22-.22.34-.2.3-.39.61-.58.92-.11.19-.2.33-.29.48-.19.32-.36.64-.54.97l-.27.51c-.18.34-.34.67-.51,1.01-.08.18-.17.36-.25.54-.16.35-.32.7-.47,1.06-.08.18-.15.37-.23.56-.15.36-.29.73-.43,1.1-.07.19-.13.37-.2.56-.14.41-.27.79-.4,1.19-.05.15-.1.3-.14.45l-.04.14c-.13.4-.25.81-.36,1.22-.04.13-.07.26-.1.39l-.05.2c-.11.43-.22.86-.32,1.3-.03.11-.05.22-.08.33l-.05.24c-.1.46-.19.92-.28,1.39l-.05.27-.04.26c-.09.5-.17.99-.25,1.5l-.02.2-.04.24c-.07.55-.14,1.1-.2,1.66l-.01.07-.02.2c-.21,2.09-.32,4.23-.32,6.35,0,12.06,3.2,22.06,9.27,28.92,5.69,6.45,13.66,9.86,23.05,9.86.66,0,1.37-.03,2.22-.08l.09-.01c18.44-1.16,29.88-15.99,29.88-38.69C378.565,238.1,375.365,228.1,369.315,221.235Zm-21.98,56.64c-.09,0-.19.01-.29.01h-.1c-.19.01-.38.02-.57.02-6.33,0-16.93-3.61-16.93-27.74a65.429,65.429,0,0,1,.58-9.15l.02-.09c.06-.43.12-.83.19-1.22l.02-.14c.08-.42.15-.78.22-1.13l.03-.17.02-.06c.07-.34.14-.67.22-.99l.05-.21.01-.07c.08-.3.16-.59.24-.89l.07-.27c.09-.31.17-.58.26-.85l.11-.33c.08-.26.17-.51.25-.75.04-.12.09-.23.13-.35l.27-.69c.05-.12.1-.23.15-.35.09-.22.19-.43.28-.64.06-.12.12-.24.17-.36.1-.2.2-.39.3-.58.06-.13.13-.25.2-.37a5.542,5.542,0,0,1,.3-.53c.08-.14.15-.26.22-.38.1-.16.21-.32.31-.48.09-.14.17-.26.26-.38.1-.14.2-.28.31-.42l.03-.04c.08-.12.17-.23.26-.35l.28-.34.06-.07c.1-.12.2-.23.3-.35.08-.09.17-.18.25-.27l.09-.09c.11-.12.22-.23.34-.35.07-.07.15-.14.23-.21l.04-.04c.17-.16.3-.28.44-.4.07-.06.14-.12.21-.17.19-.16.37-.3.54-.43.06-.04.11-.08.17-.12a13.954,13.954,0,0,1,7.33-2.62c.42-.03.8-.04,1.17-.04,6.27,0,16.81,3.6,16.81,27.74C363.185,272.285,354.565,277.445,347.335,277.875Z" fill="#2d2055"/>
          </g>
        </g>
        <g id="Grupo_46" data-name="Grupo 46">
          <path id="Caminho_97" data-name="Caminho 97" d="M526.445,220.015a6.385,6.385,0,0,1,.04.69V279.7a7.6,7.6,0,0,1-15.21,0v-55.41h-13.14a5.63,5.63,0,0,1,0-11.26h22.72a5.642,5.642,0,0,1,5.63,5.63c0,.19-.01.39-.03.59l-.04.39Z" fill="#2d2055"/>
        </g>
        <g id="Grupo_47" data-name="Grupo 47">
          <path id="Caminho_98" data-name="Caminho 98" d="M473.145,282.065a5.243,5.243,0,0,1-5.24,5.23h-54.63a5.226,5.226,0,0,1-2.38-9.88l.6-.31.47-.5.15-.16a2.113,2.113,0,0,1,.15-.15l27.19-25.43c6.25-5.81,8.8-10.51,8.8-16.22,0-6.02-3.83-12.46-14.57-12.46a21.163,21.163,0,0,0-13.17,4.39,5.538,5.538,0,0,1-3.4,1.15,5.612,5.612,0,0,1-2.77-.72h-.01a5.568,5.568,0,0,1-2.89-4.71,5.5,5.5,0,0,1,2.47-4.91c5.91-3.98,13.27-6,21.88-6,16.99,0,27.97,8.25,27.97,21.03,0,7.26-2.08,13.38-12.7,23.15l-15.5,14.33-7.51,6.94H467.9A5.237,5.237,0,0,1,473.145,282.065Z" fill="#2d2055"/>
        </g>
        <g id="Grupo_48" data-name="Grupo 48">
          <path id="Caminho_99" data-name="Caminho 99" d="M288.615,282.065a5.234,5.234,0,0,1-5.23,5.23h-54.64a5.227,5.227,0,0,1-2.11-10.01l.67-.3.53-.52c.06-.07.13-.14.21-.22l27.14-25.38c6.25-5.81,8.8-10.51,8.8-16.22,0-6.02-3.83-12.46-14.58-12.46a21.183,21.183,0,0,0-13.17,4.39,5.516,5.516,0,0,1-3.4,1.15,5.574,5.574,0,0,1-2.76-.72l-.02-.01a5.654,5.654,0,0,1-.42-9.61c5.92-3.98,13.28-6,21.89-6,16.99,0,27.96,8.25,27.96,21.03,0,7.26-2.07,13.38-12.7,23.15l-15.5,14.33-7.5,6.94h39.6A5.228,5.228,0,0,1,288.615,282.065Z" fill="#2d2055"/>
        </g>
      </g>
    </g>
  </g>
</svg>
