<svg width="309" height="155" viewBox="0 0 309 155" fill="none" xmlns="http://www.w3.org/2000/svg">
<path d="M69.4595 108.429H69.9595V107.929H69.4595V108.429ZM69.4595 124.508V125.008H69.9595V124.508H69.4595ZM5.01986 124.508H4.51986V125.008H5.01986V124.508ZM5.01986 111.718L4.67655 111.354L4.51986 111.502V111.718H5.01986ZM37.9096 80.655L38.253 81.0185L38.2547 81.0168L37.9096 80.655ZM44.9749 72.128L45.419 72.3577L45.4221 72.3516L44.9749 72.128ZM43.2695 57.1448L42.9521 57.5312L42.9596 57.5373L42.9673 57.5432L43.2695 57.1448ZM23.0483 56.5358L23.2571 56.9902L23.2671 56.9854L23.0483 56.5358ZM15.4959 62.8701L15.2251 63.2905L15.6258 63.5485L15.9027 63.1607L15.4959 62.8701ZM1.12181 53.6122L0.706838 53.3333L0.422404 53.7565L0.851075 54.0326L1.12181 53.6122ZM14.8868 42.0399L15.1003 42.4921L15.1054 42.4896L14.8868 42.0399ZM51.5528 40.9436L51.3482 41.3999L51.3577 41.404L51.5528 40.9436ZM62.6379 49.7142L62.2245 49.9957L62.2316 50.0056L62.6379 49.7142ZM63.7342 76.026L64.185 76.2424L64.185 76.2424L63.7342 76.026ZM52.4055 89.9128L52.0655 89.5462L52.0623 89.5492L52.4055 89.9128ZM32.7935 108.429L32.4502 108.065L31.5355 108.929H32.7935V108.429ZM68.9595 108.429V124.508H69.9595V108.429H68.9595ZM69.4595 124.008H5.01986V125.008H69.4595V124.008ZM5.51986 124.508V111.718H4.51986V124.508H5.51986ZM5.36317 112.081L38.253 81.0185L37.5663 80.2914L4.67655 111.354L5.36317 112.081ZM38.2547 81.0168C41.7596 77.675 44.1624 74.7869 45.419 72.3577L44.5308 71.8983C43.351 74.1791 41.0437 76.9758 37.5646 80.2931L38.2547 81.0168ZM45.4221 72.3516C46.6695 69.8568 47.3021 67.385 47.3021 64.9409H46.3021C46.3021 67.2071 45.7165 69.5266 44.5276 71.9044L45.4221 72.3516ZM47.3021 64.9409C47.3021 61.4011 46.0716 58.643 43.5717 56.7465L42.9673 57.5432C45.1775 59.2199 46.3021 61.6592 46.3021 64.9409H47.3021ZM43.5868 56.7585C41.1875 54.7876 37.6838 53.8431 33.1589 53.8431V54.8431C37.567 54.8431 40.8037 55.7665 42.9521 57.5312L43.5868 56.7585ZM33.1589 53.8431C29.3565 53.8431 25.9102 54.5875 22.8296 56.0862L23.2671 56.9854C26.196 55.5605 29.49 54.8431 33.1589 54.8431V53.8431ZM22.8396 56.0814C19.7512 57.5004 17.1669 59.6704 15.089 62.5795L15.9027 63.1607C17.8853 60.3852 20.336 58.3322 23.2571 56.9901L22.8396 56.0814ZM15.7666 62.4497L1.39255 53.1919L0.851075 54.0326L15.2251 63.2905L15.7666 62.4497ZM1.53679 53.8912C4.8119 49.0184 9.32775 45.218 15.1003 42.492L14.6733 41.5878C8.7517 44.3841 4.0909 48.2985 0.706838 53.3333L1.53679 53.8912ZM15.1054 42.4896C20.8742 39.6853 27.4972 38.2764 34.9861 38.2764V37.2764C27.3701 37.2764 20.5936 38.7098 14.6682 41.5902L15.1054 42.4896ZM34.9861 38.2764C41.2656 38.2764 46.7154 39.323 51.3483 41.3998L51.7573 40.4873C46.97 38.3413 41.3753 37.2764 34.9861 37.2764V38.2764ZM51.3577 41.404C56.0722 43.4016 59.6866 46.2679 62.2246 49.9956L63.0512 49.4328C60.3918 45.5268 56.6161 42.546 51.7479 40.4832L51.3577 41.404ZM62.2316 50.0056C64.8438 53.6468 66.1578 57.968 66.1578 62.9919H67.1578C67.1578 57.7835 65.7918 53.2528 63.0442 49.4227L62.2316 50.0056ZM66.1578 62.9919C66.1578 67.5481 65.1992 71.8186 63.2835 75.8097L64.185 76.2424C66.1673 72.1125 67.1578 67.6936 67.1578 62.9919H66.1578ZM63.2835 75.8097C61.3741 79.7874 57.6505 84.366 52.0655 89.5462L52.7455 90.2794C58.3675 85.0649 62.1963 80.3856 64.185 76.2424L63.2835 75.8097ZM52.0623 89.5492L32.4502 108.065L33.1367 108.792L52.7488 90.2764L52.0623 89.5492ZM32.7935 108.929H69.4595V107.929H32.7935V108.929ZM95.0271 120.732L95.2943 120.309L95.2943 120.309L95.0271 120.732ZM81.993 105.627L81.5393 105.837L81.5425 105.844L81.993 105.627ZM81.993 58.2412L81.5415 58.0264L81.5403 58.0288L81.993 58.2412ZM95.0271 43.0144L95.2943 43.437L95.2943 43.437L95.0271 43.0144ZM132.789 43.0144L132.522 43.437L132.522 43.437L132.789 43.0144ZM145.702 58.2412L145.248 58.4514L145.251 58.4581L145.702 58.2412ZM145.702 105.627L145.25 105.412L145.249 105.414L145.702 105.627ZM132.789 120.732L132.522 120.309L132.522 120.309L132.789 120.732ZM126.09 102.581L125.675 102.302L125.671 102.308L126.09 102.581ZM126.09 61.1647L125.671 61.4386L125.675 61.4438L126.09 61.1647ZM101.727 61.1647L101.312 60.8856L101.309 60.8909L101.727 61.1647ZM101.727 102.581L101.308 102.855L101.312 102.861L101.727 102.581ZM113.908 125.47C106.93 125.47 100.73 123.746 95.2943 120.309L94.7599 121.154C100.369 124.701 106.756 126.47 113.908 126.47V125.47ZM95.2943 120.309C89.8603 116.873 85.5749 111.914 82.4435 105.41L81.5425 105.844C84.7454 112.496 89.1494 117.607 94.7599 121.154L95.2943 120.309ZM82.4466 105.417C79.3979 98.8376 77.8641 90.9948 77.8641 81.8731H76.8641C76.8641 91.1047 78.4162 99.0977 81.5393 105.837L82.4466 105.417ZM77.8641 81.8731C77.8641 72.7511 79.3979 64.95 82.4457 58.4535L81.5403 58.0288C78.4161 64.6883 76.8641 72.6417 76.8641 81.8731H77.8641ZM82.4445 58.4559C85.5765 51.8708 89.8619 46.8723 95.2943 43.437L94.7599 42.5918C89.1479 46.1406 84.7438 51.2932 81.5415 58.0264L82.4445 58.4559ZM95.2943 43.437C100.73 39.9997 106.93 38.2764 113.908 38.2764V37.2764C106.756 37.2764 100.369 39.0451 94.7599 42.5918L95.2943 43.437ZM113.908 38.2764C120.887 38.2764 127.086 39.9997 132.522 43.437L133.057 42.5918C127.448 39.0451 121.06 37.2764 113.908 37.2764V38.2764ZM132.522 43.437C137.953 46.8715 142.197 51.8684 145.248 58.4514L146.155 58.0309C143.034 51.2956 138.67 46.1414 133.057 42.5918L132.522 43.437ZM145.251 58.4581C148.379 64.9533 149.952 72.7528 149.952 81.8731H150.952C150.952 72.6401 149.359 64.685 146.152 58.0243L145.251 58.4581ZM149.952 81.8731C149.952 90.9932 148.379 98.8343 145.25 105.412L146.153 105.842C149.359 99.101 150.952 91.1063 150.952 81.8731H149.952ZM145.249 105.414C142.199 111.916 137.955 116.874 132.522 120.309L133.057 121.154C138.668 117.606 143.033 112.493 146.154 105.839L145.249 105.414ZM132.522 120.309C127.086 123.746 120.887 125.47 113.908 125.47V126.47C121.06 126.47 127.448 124.701 133.057 121.154L132.522 120.309ZM113.908 109.781C119.28 109.781 123.495 107.458 126.508 102.855L125.671 102.308C122.837 106.638 118.932 108.781 113.908 108.781V109.781ZM126.505 102.861C129.592 98.2706 131.097 91.247 131.097 81.8731H130.097C130.097 91.1773 128.597 97.9593 125.675 102.302L126.505 102.861ZM131.097 81.8731C131.097 72.4992 129.592 65.4755 126.505 60.8856L125.675 61.4438C128.597 65.7869 130.097 72.5689 130.097 81.8731H131.097ZM126.508 60.8909C123.495 56.2879 119.28 53.9649 113.908 53.9649V54.9649C118.932 54.9649 122.837 57.1085 125.671 61.4385L126.508 60.8909ZM113.908 53.9649C108.616 53.9649 104.404 56.2896 101.312 60.8856L102.142 61.4438C105.059 57.1068 108.969 54.9649 113.908 54.9649V53.9649ZM101.309 60.8909C98.305 65.4795 96.8416 72.5008 96.8416 81.8731H97.8416C97.8416 72.5673 99.3016 65.7829 102.145 61.4385L101.309 60.8909ZM96.8416 81.8731C96.8416 91.2454 98.305 98.2667 101.309 102.855L102.145 102.308C99.3016 97.9633 97.8416 91.1789 97.8416 81.8731H96.8416ZM101.312 102.861C104.404 107.457 108.616 109.781 113.908 109.781V108.781C108.969 108.781 105.059 106.639 102.142 102.302L101.312 102.861ZM223.036 108.429H223.536V107.929H223.036V108.429ZM223.036 124.508V125.008H223.536V124.508H223.036ZM158.596 124.508H158.096V125.008H158.596V124.508ZM158.596 111.718L158.253 111.354L158.096 111.502V111.718H158.596ZM191.486 80.655L191.829 81.0185L191.831 81.0168L191.486 80.655ZM198.551 72.128L198.995 72.3577L198.998 72.3516L198.551 72.128ZM196.846 57.1448L196.528 57.5312L196.536 57.5373L196.543 57.5432L196.846 57.1448ZM176.624 56.5358L176.833 56.9902L176.843 56.9854L176.624 56.5358ZM169.072 62.8701L168.801 63.2905L169.202 63.5485L169.479 63.1607L169.072 62.8701ZM154.698 53.6122L154.283 53.3333L153.998 53.7565L154.427 54.0326L154.698 53.6122ZM168.463 42.0399L168.676 42.4921L168.681 42.4896L168.463 42.0399ZM205.129 40.9436L204.924 41.3999L204.934 41.404L205.129 40.9436ZM216.214 49.7142L215.801 49.9957L215.808 50.0056L216.214 49.7142ZM217.31 76.026L217.761 76.2424L217.761 76.2424L217.31 76.026ZM205.982 89.9128L205.642 89.5462L205.638 89.5492L205.982 89.9128ZM186.37 108.429L186.026 108.065L185.112 108.929H186.37V108.429ZM222.536 108.429V124.508H223.536V108.429H222.536ZM223.036 124.008H158.596V125.008H223.036V124.008ZM159.096 124.508V111.718H158.096V124.508H159.096ZM158.939 112.081L191.829 81.0185L191.142 80.2914L158.253 111.354L158.939 112.081ZM191.831 81.0168C195.336 77.675 197.738 74.7869 198.995 72.3577L198.107 71.8983C196.927 74.1791 194.62 76.9758 191.141 80.2931L191.831 81.0168ZM198.998 72.3516C200.246 69.8568 200.878 67.385 200.878 64.9409H199.878C199.878 67.2071 199.293 69.5266 198.104 71.9044L198.998 72.3516ZM200.878 64.9409C200.878 61.4011 199.648 58.643 197.148 56.7465L196.543 57.5432C198.754 59.2199 199.878 61.6592 199.878 64.9409H200.878ZM197.163 56.7585C194.764 54.7876 191.26 53.8431 186.735 53.8431V54.8431C191.143 54.8431 194.38 55.7665 196.528 57.5312L197.163 56.7585ZM186.735 53.8431C182.933 53.8431 179.486 54.5875 176.406 56.0862L176.843 56.9854C179.772 55.5605 183.066 54.8431 186.735 54.8431V53.8431ZM176.416 56.0814C173.327 57.5004 170.743 59.6704 168.665 62.5795L169.479 63.1607C171.461 60.3852 173.912 58.3322 176.833 56.9901L176.416 56.0814ZM169.343 62.4497L154.969 53.1919L154.427 54.0326L168.801 63.2905L169.343 62.4497ZM155.113 53.8912C158.388 49.0184 162.904 45.218 168.676 42.492L168.249 41.5878C162.328 44.3841 157.667 48.2985 154.283 53.3333L155.113 53.8912ZM168.681 42.4896C174.45 39.6853 181.073 38.2764 188.562 38.2764V37.2764C180.946 37.2764 174.17 38.7098 168.244 41.5902L168.681 42.4896ZM188.562 38.2764C194.842 38.2764 200.291 39.323 204.924 41.3998L205.333 40.4873C200.546 38.3413 194.951 37.2764 188.562 37.2764V38.2764ZM204.934 41.404C209.648 43.4016 213.263 46.2679 215.801 49.9956L216.627 49.4328C213.968 45.5268 210.192 42.546 205.324 40.4832L204.934 41.404ZM215.808 50.0056C218.42 53.6468 219.734 57.968 219.734 62.9919H220.734C220.734 57.7835 219.368 53.2528 216.62 49.4227L215.808 50.0056ZM219.734 62.9919C219.734 67.5481 218.775 71.8186 216.86 75.8097L217.761 76.2424C219.743 72.1125 220.734 67.6936 220.734 62.9919H219.734ZM216.86 75.8097C214.95 79.7874 211.227 84.366 205.642 89.5462L206.322 90.2794C211.943 85.0649 215.772 80.3856 217.761 76.2424L216.86 75.8097ZM205.638 89.5492L186.026 108.065L186.713 108.792L206.325 90.2764L205.638 89.5492ZM186.37 108.929H223.036V107.929H186.37V108.929ZM248.603 120.732L248.87 120.309L248.87 120.309L248.603 120.732ZM235.569 105.627L235.115 105.837L235.119 105.844L235.569 105.627ZM235.569 58.2412L235.118 58.0264L235.116 58.0288L235.569 58.2412ZM248.603 43.0144L248.87 43.437L248.87 43.437L248.603 43.0144ZM286.365 43.0144L286.098 43.437L286.098 43.437L286.365 43.0144ZM299.278 58.2412L298.824 58.4514L298.827 58.4581L299.278 58.2412ZM299.278 105.627L298.826 105.412L298.825 105.414L299.278 105.627ZM286.365 120.732L286.098 120.309L286.098 120.309L286.365 120.732ZM279.666 102.581L279.251 102.302L279.247 102.308L279.666 102.581ZM279.666 61.1647L279.247 61.4386L279.251 61.4438L279.666 61.1647ZM255.303 61.1647L254.888 60.8856L254.885 60.8909L255.303 61.1647ZM255.303 102.581L254.885 102.855L254.888 102.861L255.303 102.581ZM267.484 125.47C260.506 125.47 254.306 123.746 248.87 120.309L248.336 121.154C253.945 124.701 260.333 126.47 267.484 126.47V125.47ZM248.87 120.309C243.436 116.873 239.151 111.914 236.02 105.41L235.119 105.844C238.321 112.496 242.725 117.607 248.336 121.154L248.87 120.309ZM236.023 105.417C232.974 98.8376 231.44 90.9948 231.44 81.8731H230.44C230.44 91.1047 231.992 99.0977 235.115 105.837L236.023 105.417ZM231.44 81.8731C231.44 72.7511 232.974 64.95 236.022 58.4535L235.116 58.0288C231.992 64.6883 230.44 72.6417 230.44 81.8731H231.44ZM236.021 58.4559C239.153 51.8708 243.438 46.8723 248.87 43.437L248.336 42.5918C242.724 46.1406 238.32 51.2932 235.118 58.0264L236.021 58.4559ZM248.87 43.437C254.306 39.9997 260.506 38.2764 267.484 38.2764V37.2764C260.333 37.2764 253.945 39.0451 248.336 42.5918L248.87 43.437ZM267.484 38.2764C274.463 38.2764 280.662 39.9997 286.098 43.437L286.633 42.5918C281.024 39.0451 274.636 37.2764 267.484 37.2764V38.2764ZM286.098 43.437C291.529 46.8715 295.773 51.8684 298.824 58.4514L299.731 58.0309C296.61 51.2956 292.246 46.1414 286.633 42.5918L286.098 43.437ZM298.827 58.4581C301.955 64.9533 303.529 72.7528 303.529 81.8731H304.529C304.529 72.6401 302.935 64.685 299.728 58.0243L298.827 58.4581ZM303.529 81.8731C303.529 90.9932 301.955 98.8343 298.826 105.412L299.729 105.842C302.935 99.101 304.529 91.1063 304.529 81.8731H303.529ZM298.825 105.414C295.775 111.916 291.531 116.874 286.098 120.309L286.633 121.154C292.244 117.606 296.609 112.493 299.73 105.839L298.825 105.414ZM286.098 120.309C280.662 123.746 274.463 125.47 267.484 125.47V126.47C274.636 126.47 281.024 124.701 286.633 121.154L286.098 120.309ZM267.484 109.781C272.856 109.781 277.071 107.458 280.084 102.855L279.247 102.308C276.413 106.638 272.508 108.781 267.484 108.781V109.781ZM280.081 102.861C283.168 98.2706 284.673 91.247 284.673 81.8731H283.673C283.673 91.1773 282.173 97.9593 279.251 102.302L280.081 102.861ZM284.673 81.8731C284.673 72.4992 283.168 65.4755 280.081 60.8856L279.251 61.4438C282.173 65.7869 283.673 72.5689 283.673 81.8731H284.673ZM280.084 60.8909C277.071 56.2879 272.856 53.9649 267.484 53.9649V54.9649C272.508 54.9649 276.413 57.1085 279.247 61.4385L280.084 60.8909ZM267.484 53.9649C262.192 53.9649 257.98 56.2896 254.888 60.8856L255.718 61.4438C258.635 57.1068 262.545 54.9649 267.484 54.9649V53.9649ZM254.885 60.8909C251.881 65.4795 250.418 72.5008 250.418 81.8731H251.418C251.418 72.5673 252.878 65.7829 255.721 61.4385L254.885 60.8909ZM250.418 81.8731C250.418 91.2454 251.881 98.2667 254.885 102.855L255.721 102.308C252.878 97.9633 251.418 91.1789 251.418 81.8731H250.418ZM254.888 102.861C257.98 107.457 262.192 109.781 267.484 109.781V108.781C262.545 108.781 258.635 106.639 255.718 102.302L254.888 102.861Z" fill="white"/>
<path d="M69.4595 98.1065V114.186H5.01986V101.396L37.9096 70.3329C41.4016 67.0034 43.7567 64.161 44.9749 61.806C46.193 59.3697 46.8021 56.974 46.8021 54.6189C46.8021 51.2081 45.6245 48.6094 43.2695 46.8228C40.9956 44.955 37.6254 44.0211 33.1589 44.0211C29.4233 44.0211 26.0531 44.752 23.0483 46.2138C20.0436 47.5943 17.5261 49.7058 15.4959 52.5481L1.12181 43.2902C4.4514 38.3365 9.03972 34.479 14.8868 31.7179C20.7339 28.8756 27.4336 27.4544 34.9861 27.4544C41.3204 27.4544 46.8427 28.5101 51.5528 30.6216C56.3442 32.6518 60.0392 35.5754 62.6379 39.3922C65.3178 43.1278 66.6578 47.5537 66.6578 52.6699C66.6578 57.2988 65.6832 61.6435 63.7342 65.704C61.7852 69.7645 58.009 74.3934 52.4055 79.5908L32.7935 98.1065H69.4595ZM113.908 115.648C106.843 115.648 100.549 113.902 95.0271 110.41C89.5049 106.918 85.1602 101.883 81.993 95.3048C78.907 88.6457 77.3641 80.7277 77.3641 71.5511C77.3641 62.3744 78.907 54.4971 81.993 47.9192C85.1602 41.26 89.5049 36.1844 95.0271 32.6924C100.549 29.2004 106.843 27.4544 113.908 27.4544C120.973 27.4544 127.267 29.2004 132.789 32.6924C138.312 36.1844 142.616 41.26 145.702 47.9192C148.869 54.4971 150.452 62.3744 150.452 71.5511C150.452 80.7277 148.869 88.6457 145.702 95.3048C142.616 101.883 138.312 106.918 132.789 110.41C127.267 113.902 120.973 115.648 113.908 115.648ZM113.908 98.9592C119.106 98.9592 123.166 96.726 126.09 92.2595C129.094 87.793 130.597 80.8902 130.597 71.5511C130.597 62.212 129.094 55.3092 126.09 50.8427C123.166 46.3762 119.106 44.1429 113.908 44.1429C108.792 44.1429 104.732 46.3762 101.727 50.8427C98.8033 55.3092 97.3416 62.212 97.3416 71.5511C97.3416 80.8902 98.8033 87.793 101.727 92.2595C104.732 96.726 108.792 98.9592 113.908 98.9592ZM223.036 98.1065V114.186H158.596V101.396L191.486 70.3329C194.978 67.0034 197.333 64.161 198.551 61.806C199.769 59.3697 200.378 56.974 200.378 54.6189C200.378 51.2081 199.201 48.6094 196.846 46.8228C194.572 44.955 191.201 44.0211 186.735 44.0211C182.999 44.0211 179.629 44.752 176.624 46.2138C173.62 47.5943 171.102 49.7058 169.072 52.5481L154.698 43.2902C158.027 38.3365 162.616 34.479 168.463 31.7179C174.31 28.8756 181.01 27.4544 188.562 27.4544C194.896 27.4544 200.419 28.5101 205.129 30.6216C209.92 32.6518 213.615 35.5754 216.214 39.3922C218.894 43.1278 220.234 47.5537 220.234 52.6699C220.234 57.2988 219.259 61.6435 217.31 65.704C215.361 69.7645 211.585 74.3934 205.982 79.5908L186.37 98.1065H223.036ZM267.484 115.648C260.419 115.648 254.125 113.902 248.603 110.41C243.081 106.918 238.736 101.883 235.569 95.3048C232.483 88.6457 230.94 80.7277 230.94 71.5511C230.94 62.3744 232.483 54.4971 235.569 47.9192C238.736 41.26 243.081 36.1844 248.603 32.6924C254.125 29.2004 260.419 27.4544 267.484 27.4544C274.55 27.4544 280.843 29.2004 286.365 32.6924C291.888 36.1844 296.192 41.26 299.278 47.9192C302.445 54.4971 304.029 62.3744 304.029 71.5511C304.029 80.7277 302.445 88.6457 299.278 95.3048C296.192 101.883 291.888 106.918 286.365 110.41C280.843 113.902 274.55 115.648 267.484 115.648ZM267.484 98.9592C272.682 98.9592 276.742 96.726 279.666 92.2595C282.67 87.793 284.173 80.8902 284.173 71.5511C284.173 62.212 282.67 55.3092 279.666 50.8427C276.742 46.3762 272.682 44.1429 267.484 44.1429C262.368 44.1429 258.308 46.3762 255.303 50.8427C252.379 55.3092 250.918 62.212 250.918 71.5511C250.918 80.8902 252.379 87.793 255.303 92.2595C258.308 96.726 262.368 98.9592 267.484 98.9592Z" fill="#D13BD1"/>
</svg>
