<svg xmlns="http://www.w3.org/2000/svg" width="383.41" height="242.737" viewBox="0 0 383.41 242.737">
  <g id="Grupo_115" data-name="Grupo 115" transform="translate(-70.524 -127.47)">
    <ellipse id="Elipse_1" data-name="Elipse 1" cx="180.219" cy="14.592" rx="180.219" ry="14.592" transform="translate(85.546 287.729)" fill="#d9d9d9" style="mix-blend-mode: multiply;isolation: isolate"/>
    <g id="Grupo_10" data-name="Grupo 10">
      <ellipse id="Elipse_2" data-name="Elipse 2" cx="15.022" cy="3.637" rx="15.022" ry="3.637" transform="translate(148.185 362.934)" fill="#d9d9d9" style="mix-blend-mode: multiply;isolation: isolate"/>
      <path id="Caminho_260" data-name="Caminho 260" d="M100.568,321.587c0,2.008-6.726,3.636-15.022,3.636s-15.022-1.628-15.022-3.636,6.726-3.637,15.022-3.637S100.568,319.578,100.568,321.587Z" fill="#d9d9d9" style="mix-blend-mode: multiply;isolation: isolate"/>
      <ellipse id="Elipse_3" data-name="Elipse 3" cx="15.022" cy="3.637" rx="15.022" ry="3.637" transform="translate(239.753 341.023)" fill="#d9d9d9" style="mix-blend-mode: multiply;isolation: isolate"/>
      <ellipse id="Elipse_4" data-name="Elipse 4" cx="15.022" cy="3.637" rx="15.022" ry="3.637" transform="translate(277.657 358.339)" fill="#d9d9d9" style="mix-blend-mode: multiply;isolation: isolate"/>
      <path id="Caminho_261" data-name="Caminho 261" d="M397.981,334.25c0,2.008-6.725,3.637-15.022,3.637s-15.021-1.629-15.021-3.637,6.725-3.637,15.021-3.637S397.981,332.241,397.981,334.25Z" fill="#d9d9d9" style="mix-blend-mode: multiply;isolation: isolate"/>
      <path id="Caminho_262" data-name="Caminho 262" d="M435.777,333.408c0,2.009-6.725,3.637-15.021,3.637s-15.022-1.628-15.022-3.637,6.725-3.637,15.022-3.637S435.777,331.4,435.777,333.408Z" fill="#d9d9d9" style="mix-blend-mode: multiply;isolation: isolate"/>
    </g>
    <g id="Grupo_35" data-name="Grupo 35">
      <g id="Grupo_12" data-name="Grupo 12">
        <path id="Caminho_263" data-name="Caminho 263" d="M139.944,214.526a.469.469,0,0,1-.089-.014,3.413,3.413,0,0,1-2.312-3.741,7.459,7.459,0,0,1,1.887-3.756l.333-.407a9.658,9.658,0,0,0,1.743-2.645c.827-2.217-.159-4.56-1.2-7.041-1.058-2.515-2.152-5.116-1.346-7.747a11.6,11.6,0,0,1,3.011-4.36c1.347-1.427,2.619-2.774,2.79-4.514a8.4,8.4,0,0,0-1.251-4.335,7.592,7.592,0,0,1-.069-8.715c.141-.279.282-.556.415-.835.823-1.723.983-3.108.475-4.117a.623.623,0,0,1,1.113-.559c.688,1.371.532,3.124-.464,5.212-.137.287-.283.574-.428.861a8.808,8.808,0,0,0-1.2,3.421,8.917,8.917,0,0,0,1.275,4.189,9.419,9.419,0,0,1,1.371,5c-.213,2.163-1.693,3.731-3.124,5.247a10.54,10.54,0,0,0-2.726,3.87c-.674,2.2.287,4.483,1.3,6.9,1.092,2.6,2.221,5.28,1.221,7.959a10.73,10.73,0,0,1-1.947,3l-.328.4a6.393,6.393,0,0,0-1.618,3.113,2.178,2.178,0,0,0,1.355,2.387.622.622,0,0,1-.19,1.227Z" fill="#fff"/>
        <path id="Caminho_264" data-name="Caminho 264" d="M147.291,127.519c-8.282-.672-14.121,5.715-14.793,14-.57,7.03,3.058,16.594,8.643,21.069a5.882,5.882,0,0,0,6.569.533c6.233-3.517,11.354-12.371,11.925-19.4C160.306,135.435,155.573,128.19,147.291,127.519Z" fill="#ff6695"/>
        <path id="Caminho_265" data-name="Caminho 265" d="M146.958,165.891a10.369,10.369,0,0,0-1.533-3.778,4.752,4.752,0,0,0-1.871.74,11.539,11.539,0,0,0-1.484,2.493c-.248.42-.48,1-.133,1.348a.762.762,0,0,0,.91.036,2.233,2.233,0,0,0,.647-.727.989.989,0,0,0,.982,1.237.971.971,0,0,0,.805-.862,1.738,1.738,0,0,0,.24.575.883.883,0,0,0,1.017.382C147.037,167.12,147.059,166.425,146.958,165.891Z" fill="#ff6695"/>
        <g id="Grupo_11" data-name="Grupo 11" style="mix-blend-mode: overlay;isolation: isolate">
          <path id="Caminho_266" data-name="Caminho 266" d="M136.263,142.493a1.576,1.576,0,0,1-1.443-1.694,13.572,13.572,0,0,1,7.9-11.1,1.576,1.576,0,1,1,1.262,2.888,10.343,10.343,0,0,0-6.017,8.455,1.576,1.576,0,0,1-1.7,1.448Z" fill="#d9d9d9"/>
          <path id="Caminho_267" data-name="Caminho 267" d="M136.657,148.426a1.577,1.577,0,0,1-1.436-1.389l-.177-1.508a1.576,1.576,0,1,1,3.131-.367l.177,1.511a1.576,1.576,0,0,1-1.384,1.747A1.62,1.62,0,0,1,136.657,148.426Z" fill="#d9d9d9"/>
        </g>
      </g>
      <g id="Grupo_14" data-name="Grupo 14">
        <path id="Caminho_268" data-name="Caminho 268" d="M285.229,228.145c-.027-.005-.055-.011-.083-.019a3.2,3.2,0,0,1-1.913-3.655,6.989,6.989,0,0,1,2.017-3.388l.339-.359a9.059,9.059,0,0,0,1.806-2.358c.922-2.019.156-4.277-.654-6.668-.822-2.423-1.672-4.93-.743-7.337a10.883,10.883,0,0,1,3.108-3.878c1.356-1.245,2.636-2.421,2.912-4.037a7.875,7.875,0,0,0-.881-4.139,9.341,9.341,0,0,1-.989-4.579,9.247,9.247,0,0,1,1.506-3.58c.151-.251.3-.5.444-.753.885-1.557,1.127-2.842.72-3.82a.584.584,0,1,1,1.078-.449c.552,1.328.289,2.958-.782,4.845-.148.26-.3.518-.458.777a8.269,8.269,0,0,0-1.349,3.121,8.355,8.355,0,0,0,.914,4,8.844,8.844,0,0,1,.948,4.769c-.343,2.01-1.833,3.378-3.273,4.7a9.875,9.875,0,0,0-2.809,3.439c-.776,2.012-.031,4.213.759,6.541.848,2.5,1.725,5.088.611,7.528a10.06,10.06,0,0,1-2.022,2.677l-.333.353a5.986,5.986,0,0,0-1.721,2.8,2.043,2.043,0,0,0,1.107,2.324.584.584,0,0,1-.259,1.136Z" fill="#fff"/>
        <path id="Caminho_269" data-name="Caminho 269" d="M297.909,147.233c-7.7-1.181-13.592,4.4-14.773,12.109-1,6.539,1.753,15.729,6.679,20.288a5.515,5.515,0,0,0,6.111.937c6.066-2.873,11.448-10.816,12.451-17.355C309.558,155.508,305.613,148.414,297.909,147.233Z" fill="#ff6695"/>
        <path id="Caminho_270" data-name="Caminho 270" d="M295.037,183.11a9.73,9.73,0,0,0-1.182-3.636,4.453,4.453,0,0,0-1.8.567,10.874,10.874,0,0,0-1.555,2.233c-.26.377-.516.908-.214,1.252a.715.715,0,0,0,.849.1,2.088,2.088,0,0,0,.653-.637.929.929,0,0,0,.837,1.223.911.911,0,0,0,.811-.752,1.608,1.608,0,0,0,.186.553.828.828,0,0,0,.926.426C295.029,184.265,295.1,183.617,295.037,183.11Z" fill="#ff6695"/>
        <g id="Grupo_13" data-name="Grupo 13" style="mix-blend-mode: overlay;isolation: isolate">
          <path id="Caminho_271" data-name="Caminho 271" d="M286.593,160.506a1.478,1.478,0,0,1-1.238-1.681,12.734,12.734,0,0,1,8.129-9.855,1.478,1.478,0,0,1,.989,2.786,9.7,9.7,0,0,0-6.194,7.509,1.48,1.48,0,0,1-1.682,1.242Z" fill="#d9d9d9"/>
          <path id="Caminho_272" data-name="Caminho 272" d="M286.565,166.083a1.479,1.479,0,0,1-1.251-1.395l-.064-1.423a1.478,1.478,0,0,1,2.953-.134l.065,1.425a1.478,1.478,0,0,1-1.7,1.527Z" fill="#d9d9d9"/>
        </g>
      </g>
      <g id="Grupo_18" data-name="Grupo 18">
        <path id="Caminho_273" data-name="Caminho 273" d="M200.888,223.624a.613.613,0,0,1-.112-.01,1.791,1.791,0,0,1-1.4-1.287,3,3,0,0,1,.693-2.865,7.151,7.151,0,0,1,1.976-1.287,8.273,8.273,0,0,0,1.347-.78c2.064-1.584,1.95-4.917.971-7.343a29.73,29.73,0,0,0-1.589-3.173,21.44,21.44,0,0,1-2.158-4.821c-.878-3.332-.254-7.157,1.855-11.369.855-1.708,1.869-3.348,2.85-4.934s1.981-3.2,2.815-4.873c1.963-3.935,2.548-7.466,1.737-10.5a.622.622,0,1,1,1.2-.322c.892,3.333.277,7.159-1.826,11.374-.859,1.721-1.88,3.373-2.869,4.971-.966,1.564-1.966,3.18-2.8,4.837-1.969,3.933-2.563,7.464-1.764,10.495a20.23,20.23,0,0,0,2.044,4.537,30.644,30.644,0,0,1,1.654,3.308c1.187,2.944,1.225,6.806-1.368,8.8a9.345,9.345,0,0,1-1.547.906,6.133,6.133,0,0,0-1.65,1.05,1.768,1.768,0,0,0-.39,1.615c.119.379.357.422.435.437a.622.622,0,0,1-.111,1.234Z" fill="#fff"/>
        <g id="Grupo_15" data-name="Grupo 15">
          <path id="Caminho_274" data-name="Caminho 274" d="M210.543,133.238c-8.309,0-13.612,6.838-13.612,15.147,0,7.054,4.388,16.294,10.317,20.3a5.88,5.88,0,0,0,6.591,0c5.928-4.008,10.317-13.248,10.317-20.3C224.156,140.076,218.853,133.238,210.543,133.238Z" fill="#51f2ed"/>
        </g>
        <g id="Grupo_16" data-name="Grupo 16">
          <path id="Caminho_275" data-name="Caminho 275" d="M213.313,171.511a10.348,10.348,0,0,0-1.834-3.641,4.736,4.736,0,0,0-1.8.888,11.571,11.571,0,0,0-1.278,2.605c-.213.439-.4,1.039-.024,1.354a.761.761,0,0,0,.91-.037,2.225,2.225,0,0,0,.586-.777.99.99,0,0,0,1.079,1.154.972.972,0,0,0,.733-.925,1.728,1.728,0,0,0,.286.554.884.884,0,0,0,1.045.3C213.492,172.729,213.457,172.035,213.313,171.511Z" fill="#51f2ed"/>
        </g>
        <g id="Grupo_17" data-name="Grupo 17" style="mix-blend-mode: overlay;isolation: isolate">
          <path id="Caminho_276" data-name="Caminho 276" d="M200.762,149.054a1.577,1.577,0,0,1-1.576-1.572,13.577,13.577,0,0,1,6.974-11.7,1.576,1.576,0,0,1,1.492,2.777,10.342,10.342,0,0,0-5.314,8.914,1.575,1.575,0,0,1-1.572,1.58Z" fill="#f6f6f6"/>
          <path id="Caminho_277" data-name="Caminho 277" d="M201.634,154.936a1.578,1.578,0,0,1-1.544-1.268l-.3-1.489a1.576,1.576,0,1,1,3.09-.619l.3,1.491a1.578,1.578,0,0,1-1.547,1.885Z" fill="#f6f6f6"/>
        </g>
      </g>
      <g id="Grupo_22" data-name="Grupo 22">
        <path id="Caminho_278" data-name="Caminho 278" d="M313.614,220.3a.6.6,0,0,1-.112.008,1.79,1.79,0,0,1-1.59-1.042,3.006,3.006,0,0,1,.219-2.94,7.149,7.149,0,0,1,1.741-1.591,8.336,8.336,0,0,0,1.2-.988c1.779-1.9,1.126-5.169-.234-7.4a29.79,29.79,0,0,0-2.083-2.872,21.5,21.5,0,0,1-2.912-4.407c-1.408-3.145-1.413-7.021-.016-11.519.567-1.824,1.3-3.607,2.012-5.332s1.435-3.481,1.987-5.265c1.3-4.2,1.3-7.78.01-10.639a.622.622,0,0,1,1.134-.513c1.421,3.144,1.436,7.02.045,11.52-.569,1.838-1.309,3.634-2.024,5.371-.7,1.7-1.425,3.457-1.974,5.226-1.3,4.2-1.317,7.782-.038,10.643a20.27,20.27,0,0,0,2.754,4.145,30.61,30.61,0,0,1,2.169,3c1.649,2.712,2.313,6.516.078,8.9a9.388,9.388,0,0,1-1.38,1.145,6.108,6.108,0,0,0-1.457,1.3,1.766,1.766,0,0,0-.123,1.657.542.542,0,0,0,.5.36.622.622,0,0,1,.091,1.236Z" fill="#fff"/>
        <g id="Grupo_19" data-name="Grupo 19">
          <path id="Caminho_279" data-name="Caminho 279" d="M308.47,129.549c-8.2,1.349-12.323,8.957-10.974,17.156,1.145,6.961,6.975,15.365,13.476,18.358a5.88,5.88,0,0,0,6.5-1.07c5.2-4.917,8.029-14.746,6.884-21.707C323.012,134.087,316.669,128.2,308.47,129.549Z" fill="#51f2ed"/>
        </g>
        <g id="Grupo_20" data-name="Grupo 20">
          <path id="Caminho_280" data-name="Caminho 280" d="M317.416,166.865a10.368,10.368,0,0,0-2.4-3.295,4.753,4.753,0,0,0-1.637,1.17,11.575,11.575,0,0,0-.838,2.777c-.138.468-.223,1.09.2,1.34a.763.763,0,0,0,.892-.184,2.243,2.243,0,0,0,.452-.862.989.989,0,0,0,1.252.963.971.971,0,0,0,.573-1.031,1.714,1.714,0,0,0,.371.5.883.883,0,0,0,1.08.125C317.789,168.038,317.643,167.359,317.416,166.865Z" fill="#51f2ed"/>
        </g>
        <g id="Grupo_21" data-name="Grupo 21" style="mix-blend-mode: overlay;isolation: isolate">
          <path id="Caminho_281" data-name="Caminho 281" d="M301.386,146.743a1.576,1.576,0,0,1-1.81-1.295,13.572,13.572,0,0,1,4.982-12.676,1.576,1.576,0,0,1,1.923,2.5,10.343,10.343,0,0,0-3.8,9.659,1.576,1.576,0,0,1-1.294,1.814Z" fill="#f6f6f6"/>
          <path id="Caminho_282" data-name="Caminho 282" d="M303.2,152.406a1.579,1.579,0,0,1-1.73-1l-.535-1.421a1.576,1.576,0,0,1,2.949-1.112l.537,1.423a1.577,1.577,0,0,1-.92,2.03A1.658,1.658,0,0,1,303.2,152.406Z" fill="#f6f6f6"/>
        </g>
      </g>
      <g id="Grupo_26" data-name="Grupo 26">
        <path id="Caminho_283" data-name="Caminho 283" d="M389.635,226.052a.587.587,0,0,1-.273-.21,13.406,13.406,0,0,1,1.594-17.006,25.4,25.4,0,0,1,3.644-2.727c.78-.513,1.586-1.044,2.327-1.615,1.559-1.2,3.443-3.141,3.564-5.559.106-2.136-1.132-3.982-2.443-5.937a20.862,20.862,0,0,1-2.163-3.77,10.217,10.217,0,0,1,3.774-11.976.592.592,0,1,1,.65.99,9,9,0,0,0-3.325,10.547,19.923,19.923,0,0,0,2.047,3.549c1.36,2.03,2.767,4.127,2.642,6.655-.143,2.87-2.267,5.086-4.024,6.439-.776.6-1.6,1.14-2.4,1.665a24.183,24.183,0,0,0-3.478,2.6,12.189,12.189,0,0,0-1.449,15.461.592.592,0,0,1-.689.9Z" fill="#fff"/>
        <g id="Grupo_23" data-name="Grupo 23">
          <path id="Caminho_284" data-name="Caminho 284" d="M411.644,143.68c-7.4-2.763-14.4,1.566-17.163,8.968-2.345,6.284-1.508,15.973,2.44,21.515a5.594,5.594,0,0,0,5.872,2.192c6.613-1.6,13.6-8.371,15.941-14.655C421.5,154.3,419.046,146.443,411.644,143.68Z" fill="#7e5bff"/>
        </g>
        <g id="Grupo_24" data-name="Grupo 24">
          <path id="Caminho_285" data-name="Caminho 285" d="M401.386,178.7a9.859,9.859,0,0,0-.423-3.853,4.51,4.51,0,0,0-1.9.192,10.964,10.964,0,0,0-2,1.9c-.336.32-.7.794-.472,1.2a.726.726,0,0,0,.823.27,2.133,2.133,0,0,0,.78-.5.941.941,0,0,0,.578,1.386.923.923,0,0,0,.96-.58,1.638,1.638,0,0,0,.07.588.842.842,0,0,0,.832.614C401.139,179.84,401.34,179.21,401.386,178.7Z" fill="#7e5bff"/>
        </g>
        <g id="Grupo_25" data-name="Grupo 25" style="mix-blend-mode: soft-light;isolation: isolate">
          <path id="Caminho_286" data-name="Caminho 286" d="M397.672,154.518a1.5,1.5,0,0,1-.881-1.925,12.9,12.9,0,0,1,10.1-8.1,1.5,1.5,0,1,1,.406,2.969,9.834,9.834,0,0,0-7.7,6.174,1.5,1.5,0,0,1-1.925.885Z" fill="#f6f6f6"/>
          <path id="Caminho_287" data-name="Caminho 287" d="M396.493,160.047a1.5,1.5,0,0,1-.954-1.643l.23-1.425a1.5,1.5,0,0,1,2.959.476l-.23,1.428a1.5,1.5,0,0,1-1.719,1.24A1.583,1.583,0,0,1,396.493,160.047Z" fill="#f6f6f6"/>
        </g>
      </g>
      <g id="Grupo_30" data-name="Grupo 30">
        <path id="Caminho_288" data-name="Caminho 288" d="M240.248,232.233a.62.62,0,0,1-.347-.106,14.1,14.1,0,0,1-4.683-17.343,26.782,26.782,0,0,1,2.587-4.028c.58-.792,1.178-1.611,1.7-2.446,1.094-1.757,2.237-4.361,1.466-6.789-.68-2.143-2.579-3.507-4.589-4.951a21.779,21.779,0,0,1-3.518-2.919,10.745,10.745,0,0,1-.686-13.188.623.623,0,0,1,1,.737,9.463,9.463,0,0,0,.6,11.615,21,21,0,0,0,3.321,2.744c2.087,1.5,4.245,3.048,5.051,5.586.914,2.88-.364,5.844-1.6,7.823-.545.875-1.157,1.712-1.75,2.523a25.393,25.393,0,0,0-2.473,3.836,12.82,12.82,0,0,0,4.258,15.766.623.623,0,0,1-.347,1.14Z" fill="#fff"/>
        <g id="Grupo_27" data-name="Grupo 27">
          <path id="Caminho_289" data-name="Caminho 289" d="M231.639,142.977c-8.31,0-13.613,6.839-13.613,15.148,0,7.054,4.389,16.293,10.317,20.3a5.884,5.884,0,0,0,6.591,0c5.929-4.009,10.317-13.248,10.317-20.3C245.251,149.816,239.948,142.977,231.639,142.977Z" fill="#7e5bff"/>
        </g>
        <g id="Grupo_28" data-name="Grupo 28">
          <path id="Caminho_290" data-name="Caminho 290" d="M234.409,181.251a10.356,10.356,0,0,0-1.834-3.641,4.747,4.747,0,0,0-1.8.888,11.56,11.56,0,0,0-1.277,2.6c-.213.44-.4,1.04-.024,1.355a.764.764,0,0,0,.91-.037,2.244,2.244,0,0,0,.586-.778.99.99,0,0,0,1.079,1.154.972.972,0,0,0,.733-.924,1.745,1.745,0,0,0,.285.554.886.886,0,0,0,1.045.3C234.587,182.469,234.553,181.775,234.409,181.251Z" fill="#7e5bff"/>
        </g>
        <g id="Grupo_29" data-name="Grupo 29" style="mix-blend-mode: soft-light;isolation: isolate">
          <path id="Caminho_291" data-name="Caminho 291" d="M221.858,158.794a1.576,1.576,0,0,1-1.576-1.572,13.572,13.572,0,0,1,6.974-11.7,1.576,1.576,0,1,1,1.492,2.776,10.344,10.344,0,0,0-5.314,8.915,1.577,1.577,0,0,1-1.572,1.58Z" fill="#f6f6f6"/>
          <path id="Caminho_292" data-name="Caminho 292" d="M222.73,164.676a1.578,1.578,0,0,1-1.544-1.268l-.3-1.49a1.576,1.576,0,0,1,3.091-.618l.3,1.491a1.576,1.576,0,0,1-1.237,1.854A1.646,1.646,0,0,1,222.73,164.676Z" fill="#f6f6f6"/>
        </g>
      </g>
      <g id="Grupo_32" data-name="Grupo 32">
        <path id="Caminho_293" data-name="Caminho 293" d="M128.514,200.115c2.234,3.177,4.544,6.461,5.814,10.129a16.457,16.457,0,0,1,.88,4.684l1.219.252a17.608,17.608,0,0,0-.948-5.335c-1.326-3.83-3.686-7.185-5.968-10.43-.7-.991-1.394-1.982-2.062-2.986-2.289-3.438-5.259-8.635-4.629-14.044a.609.609,0,0,0-1.21-.14c-.676,5.806,2.43,11.262,4.825,14.86C127.108,198.117,127.811,199.116,128.514,200.115Z" fill="#fff"/>
        <path id="Caminho_294" data-name="Caminho 294" d="M117.546,145.426c-8.08.917-12.483,8.152-11.566,16.232.778,6.86,6.065,15.36,12.273,18.6a5.756,5.756,0,0,0,6.409-.727c5.323-4.552,8.571-14.021,7.793-20.881C131.538,150.574,125.626,144.509,117.546,145.426Z" fill="#b92bf1"/>
        <path id="Caminho_295" data-name="Caminho 295" d="M124.463,182.339A10.135,10.135,0,0,0,122.278,179a4.627,4.627,0,0,0-1.657,1.063,11.287,11.287,0,0,0-.955,2.673c-.159.451-.272,1.055.126,1.32a.746.746,0,0,0,.881-.137,2.182,2.182,0,0,0,.484-.82.969.969,0,0,0,1.176,1,.952.952,0,0,0,.611-.98,1.7,1.7,0,0,0,.339.507.864.864,0,0,0,1.049.175C124.771,183.5,124.661,182.833,124.463,182.339Z" fill="#b92bf1"/>
        <g id="Grupo_31" data-name="Grupo 31" style="mix-blend-mode: overlay;isolation: isolate">
          <path id="Caminho_296" data-name="Caminho 296" d="M109.78,161.886a1.542,1.542,0,0,1-1.706-1.355,13.285,13.285,0,0,1,5.491-12.146,1.542,1.542,0,0,1,1.757,2.535,10.124,10.124,0,0,0-4.184,9.256,1.542,1.542,0,0,1-1.354,1.709Z" fill="#f6f6f6"/>
          <path id="Caminho_297" data-name="Caminho 297" d="M111.277,167.509a1.543,1.543,0,0,1-1.642-1.062l-.453-1.416a1.542,1.542,0,0,1,2.937-.942l.454,1.417a1.542,1.542,0,0,1-1,1.939A1.512,1.512,0,0,1,111.277,167.509Z" fill="#f6f6f6"/>
        </g>
      </g>
      <g id="Grupo_34" data-name="Grupo 34">
        <path id="Caminho_298" data-name="Caminho 298" d="M328.423,229.948a.573.573,0,0,1-.475-.646,5.341,5.341,0,0,1,3.58-3.886,20.142,20.142,0,0,1,2.274-.723,16.631,16.631,0,0,0,2.4-.789c4.377-1.95,6.07-7.29,5.807-11.715-.217-3.644-1.473-7.206-2.688-10.65-.382-1.084-.765-2.168-1.117-3.256-1.253-3.867-2.678-9.6-.588-14.683a.573.573,0,0,1,1.06.435c-1.947,4.738-.579,10.2.618,13.895.35,1.078.729,2.153,1.108,3.228,1.241,3.519,2.525,7.158,2.751,10.963.287,4.82-1.607,10.656-6.484,12.829a17.723,17.723,0,0,1-2.567.848,18.955,18.955,0,0,0-2.146.679,4.243,4.243,0,0,0-2.878,2.987.572.572,0,0,1-.648.486Z" fill="#fff"/>
        <path id="Caminho_299" data-name="Caminho 299" d="M343.307,149.227c-7.551-1.225-13.378,4.206-14.6,11.756-1.04,6.409,1.585,15.452,6.38,19.968a5.414,5.414,0,0,0,5.989.972c5.978-2.768,11.328-10.515,12.368-16.925C354.667,157.448,350.857,150.453,343.307,149.227Z" fill="#b92bf1"/>
        <path id="Caminho_300" data-name="Caminho 300" d="M340.179,184.411a9.531,9.531,0,0,0-1.129-3.578,4.358,4.358,0,0,0-1.771.541,10.64,10.64,0,0,0-1.545,2.178c-.258.367-.514.886-.221,1.227a.7.7,0,0,0,.832.1,2.053,2.053,0,0,0,.647-.619.911.911,0,0,0,.81,1.207.893.893,0,0,0,.8-.732,1.609,1.609,0,0,0,.178.545.813.813,0,0,0,.906.426C340.161,185.545,340.232,184.909,340.179,184.411Z" fill="#b92bf1"/>
        <g id="Grupo_33" data-name="Grupo 33" style="mix-blend-mode: overlay;isolation: isolate">
          <path id="Caminho_301" data-name="Caminho 301" d="M332.087,162.156a1.451,1.451,0,0,1-1.2-1.661,12.493,12.493,0,0,1,8.062-9.6,1.45,1.45,0,1,1,.946,2.742,9.519,9.519,0,0,0-6.143,7.317,1.45,1.45,0,0,1-1.661,1.2Z" fill="#f6f6f6"/>
          <path id="Caminho_302" data-name="Caminho 302" d="M332.012,167.629a1.452,1.452,0,0,1-1.216-1.38l-.051-1.4a1.45,1.45,0,0,1,2.9-.107l.051,1.4a1.449,1.449,0,0,1-1.4,1.5A1.42,1.42,0,0,1,332.012,167.629Z" fill="#f6f6f6"/>
        </g>
      </g>
    </g>
    <g id="Grupo_114" data-name="Grupo 114">
      <path id="Caminho_303" data-name="Caminho 303" d="M173.31,279.716v22.605H94.84V284.468l37.723-35.276c8.063-7.487,9.215-12.094,9.215-16.27,0-6.479-4.319-10.366-12.958-10.366a20.6,20.6,0,0,0-18,9.79L89.657,220.54c7.631-12.67,21.885-21.021,41.754-21.021,23.181,0,39.163,11.95,39.163,30.668,0,9.791-2.736,18.717-17.134,31.964l-19.005,17.565Zm8.208-27.788c0-33.26,18.718-52.409,44.49-52.409,25.629,0,44.347,19.149,44.347,52.409s-18.718,52.409-44.347,52.409C200.236,304.337,181.518,285.188,181.518,251.928Zm60.184,0c0-21.165-6.623-29.085-15.694-29.085-9.215,0-15.837,7.92-15.837,29.085s6.622,29.084,15.837,29.084C235.079,281.012,241.7,273.093,241.7,251.928Zm115.186,27.788v22.605H278.419V284.468l37.723-35.276c8.063-7.487,9.215-12.094,9.215-16.27,0-6.479-4.32-10.366-12.959-10.366a20.6,20.6,0,0,0-18,9.79L273.235,220.54c7.632-12.67,21.885-21.021,41.755-21.021,23.181,0,39.163,11.95,39.163,30.668,0,9.791-2.736,18.717-17.134,31.964l-19.006,17.565Zm8.21-27.788c0-33.26,18.717-52.409,44.49-52.409,25.628,0,44.346,19.149,44.346,52.409s-18.718,52.409-44.346,52.409C383.815,304.337,365.1,285.188,365.1,251.928Zm60.184,0c0-21.165-6.624-29.085-15.694-29.085-9.215,0-15.838,7.92-15.838,29.085s6.623,29.084,15.838,29.084C418.658,281.012,425.282,273.093,425.282,251.928Zm-314.46-19.582h-6.078l-.865-7.261,6.067-1.927Zm183.579,0h-6.078l-.262-5.859,7.471-2.192-.809,4.478Z" fill="#b92bf1"/>
      <path id="Caminho_304" data-name="Caminho 304" d="M167.232,279.716v22.605H88.762V284.468l37.723-35.276c8.063-7.487,9.215-12.094,9.215-16.27,0-6.479-4.319-10.366-12.958-10.366a20.6,20.6,0,0,0-18,9.79L83.579,220.54c7.631-12.67,21.885-21.021,41.754-21.021,23.181,0,39.163,11.95,39.163,30.668,0,9.791-2.736,18.717-17.134,31.964l-19.005,17.565Z" fill="#fff"/>
      <path id="Caminho_305" data-name="Caminho 305" d="M175.44,251.928c0-33.26,18.718-52.409,44.49-52.409,25.629,0,44.347,19.149,44.347,52.409s-18.718,52.409-44.347,52.409C194.158,304.337,175.44,285.188,175.44,251.928Zm60.184,0c0-21.165-6.623-29.085-15.694-29.085-9.215,0-15.837,7.92-15.837,29.085s6.622,29.084,15.837,29.084C229,281.012,235.624,273.093,235.624,251.928Z" fill="#fff"/>
      <path id="Caminho_306" data-name="Caminho 306" d="M350.81,279.716v22.605H272.341V284.468l37.723-35.276c8.063-7.487,9.215-12.094,9.215-16.27,0-6.479-4.32-10.366-12.958-10.366a20.6,20.6,0,0,0-18,9.79L267.157,220.54c7.632-12.67,21.885-21.021,41.755-21.021,23.181,0,39.163,11.95,39.163,30.668,0,9.791-2.736,18.717-17.134,31.964l-19.006,17.565Z" fill="#fff"/>
      <path id="Caminho_307" data-name="Caminho 307" d="M359.02,251.928c0-33.26,18.717-52.409,44.49-52.409,25.629,0,44.346,19.149,44.346,52.409s-18.717,52.409-44.346,52.409C377.737,304.337,359.02,285.188,359.02,251.928Zm60.184,0c0-21.165-6.624-29.085-15.694-29.085-9.215,0-15.838,7.92-15.838,29.085s6.623,29.084,15.838,29.084C412.58,281.012,419.2,273.093,419.2,251.928Z" fill="#fff"/>
      <g id="Grupo_45" data-name="Grupo 45">
        <g id="Grupo_37" data-name="Grupo 37">
          <g id="Grupo_36" data-name="Grupo 36">
            <path id="Caminho_308" data-name="Caminho 308" d="M352.161,263.813c-.064-.089-.131-.173-.2-.256,0-.012,0-.026,0-.037a.177.177,0,0,0-.186-.178,4.942,4.942,0,0,0-4.9-1.518.182.182,0,0,0-.009.349,3.748,3.748,0,0,0,.466.11c.606.122.622.513.719,1.06a2.677,2.677,0,0,0,.32,1.073,1.349,1.349,0,0,0,1.75.528l.01-.008a1.389,1.389,0,0,0,1.25.234c.377-.153.513-.661.56-1.119C352.084,264.1,352.27,263.964,352.161,263.813Z" fill="#c2fff5"/>
          </g>
        </g>
        <path id="Caminho_309" data-name="Caminho 309" d="M374.607,322.394c1.1,3.711,2.281,7.375,3.584,11.014h1.8c-.424-3.911-.711-7.859-.909-11.783q-.3-6-.266-11.969c.03-3.506.178-6.986.423-10.426q.951,5.719,2.243,11.268,1.431,6.021,3.171,11.9c1.1,3.711,2.281,7.375,3.584,11.014h1.8c-.424-3.911-.711-7.859-.91-11.783q-.3-6-.265-11.969c.033-3.97.212-7.912.52-11.794.01-.118.025-.234.036-.353a10.425,10.425,0,0,0-4.052-4.187c-2.345-1.263-5.148-1.325-7.74-1.112-2.76.226-6.784,1.41-8.915,3.723q.153,1.165.325,2.324,1,6.224,2.409,12.241Q372.867,316.519,374.607,322.394Z" fill="#ff6695"/>
        <g id="Grupo_38" data-name="Grupo 38">
          <path id="Caminho_310" data-name="Caminho 310" d="M379.987,333.408h-1.8a9.254,9.254,0,0,1-2.846.94.038.038,0,0,0,0,.076h4.872A1.518,1.518,0,0,0,379.987,333.408Z" fill="#32154c"/>
        </g>
        <g id="Grupo_39" data-name="Grupo 39">
          <path id="Caminho_311" data-name="Caminho 311" d="M390.029,333.408h-1.8a8.747,8.747,0,0,1-2.833.9.059.059,0,0,0,.013.116h4.838A1.65,1.65,0,0,0,390.029,333.408Z" fill="#32154c"/>
        </g>
        <g id="Grupo_40" data-name="Grupo 40">
          <path id="Caminho_312" data-name="Caminho 312" d="M381.862,258c10.555,1.116,8.281,44.538,8.281,44.538a41.136,41.136,0,0,1-21.958-.07S365.886,256.308,381.862,258Z" fill="#7e5bff"/>
        </g>
        <g id="Grupo_41" data-name="Grupo 41">
          <path id="Caminho_313" data-name="Caminho 313" d="M379.366,258.142c-3.356.857-8.784,6.176-13.638,6.427-7.771.4-12.882-3.291-14.517-.722-2.656,4.175,10.421,12.084,18.778,7.34s11-4.933,11-4.933Z" fill="#7e5bff"/>
        </g>
        <g id="Grupo_42" data-name="Grupo 42">
          <path id="Caminho_314" data-name="Caminho 314" d="M383.744,258.716c10.092,8.344,15.065,22.188,8.249,26.153S383.744,258.716,383.744,258.716Z" fill="#7e5bff"/>
        </g>
        <g id="Grupo_43" data-name="Grupo 43">
          <path id="Caminho_315" data-name="Caminho 315" d="M378.631,249.284c-1.138,3.842.024,6.736,2.36,7.353l2.527-1.993-.333-4.933Z" fill="#c2fff5"/>
        </g>
        <g id="Grupo_44" data-name="Grupo 44">
          <path id="Caminho_316" data-name="Caminho 316" d="M377.371,249.27c.335,1.721,2.553,1.412,3.96,1.408a5.9,5.9,0,0,1-.3,4.051,30.014,30.014,0,0,0-1.466,3.879,4.276,4.276,0,0,0,.8,3.9c.608.628,1.513,1.012,1.851,1.817.566,1.351-.832,2.936-.283,4.294a3.206,3.206,0,0,0,2.143,1.52,14.6,14.6,0,0,0,4.367.923,5.887,5.887,0,0,0,4.135-1.417,3.733,3.733,0,0,0,1-4.083c-.63-1.424-2.272-2.235-2.8-3.7-.658-1.846.7-4.026-.141-5.8-.691-1.45-2.606-2.017-3.253-3.487-.416-.947-.2-2.054-.477-3.052a4.136,4.136,0,0,0-3.266-2.75,8.338,8.338,0,0,0-4.407.564,3.966,3.966,0,0,0-1.267.671A1.435,1.435,0,0,0,377.371,249.27Z" fill="#32154c"/>
        </g>
      </g>
      <g id="Grupo_57" data-name="Grupo 57">
        <g id="Grupo_47" data-name="Grupo 47">
          <g id="Grupo_46" data-name="Grupo 46">
            <path id="Caminho_317" data-name="Caminho 317" d="M102.931,250.6a.7.7,0,0,0,.054-.754,1.156,1.156,0,0,0-.821-.66,1.02,1.02,0,0,0-.7.126c0-.556.5-1.521.238-1.678a.262.262,0,0,0-.236.064.713.713,0,0,0-.15.206c-.06.112-.114.227-.165.343l.123-.429a.206.206,0,0,0,0-.156.138.138,0,0,0-.17-.048.366.366,0,0,0-.145.123,2.867,2.867,0,0,0-.541,2.459,1.136,1.136,0,0,0-.095.807,3.153,3.153,0,0,0,.436.91l.691,1.119.256-.239a.776.776,0,0,0,.7-.2,1.2,1.2,0,0,0,.33-.827,1.762,1.762,0,0,0-.287-1.014c.017,0,.034.007.051.009A.535.535,0,0,0,102.931,250.6Z" fill="#c2fff5"/>
          </g>
        </g>
        <g id="Grupo_48" data-name="Grupo 48">
          <path id="Caminho_318" data-name="Caminho 318" d="M79.386,309.791c0,.068-.005.135-.008.2-.18,3.554-.44,7.129-.825,10.672H80.18c1.181-3.3,2.247-6.615,3.246-9.976.053-.177.1-.355.154-.533C82.18,310.082,80.775,309.979,79.386,309.791Z" fill="#c2fff5"/>
        </g>
        <g id="Grupo_49" data-name="Grupo 49">
          <path id="Caminho_319" data-name="Caminho 319" d="M88.452,310.355c-.179,3.435-.432,6.888-.8,10.311h1.626c1.181-3.3,2.247-6.615,3.247-9.976.029-.1.056-.2.085-.3Q90.529,310.4,88.452,310.355Z" fill="#c2fff5"/>
        </g>
        <g id="Grupo_50" data-name="Grupo 50">
          <path id="Caminho_320" data-name="Caminho 320" d="M79.618,299.154q.027,5.393-.24,10.84c-.022.421-.048.843-.072,1.264.305.074.612.143.923.2.939.171,1.888.3,2.841.408.118-.391.24-.782.356-1.175Q85,305.366,86.3,299.916q1.178-5.028,2.032-10.206c.222,3.116.356,6.268.383,9.444q.029,5.393-.24,10.84c-.037.727-.08,1.455-.123,2.183,1.253.008,2.505-.027,3.755-.113.139-.458.28-.915.417-1.374q1.575-5.324,2.871-10.774,1.278-5.457,2.182-11.087c.1-.7.2-1.4.3-2.105-1.93-2.1-5.576-3.167-8.075-3.372a12.585,12.585,0,0,0-7.011,1.008,9.429,9.429,0,0,0-3.669,3.792c.01.107.023.212.032.32C79.426,291.987,79.588,295.558,79.618,299.154Z" fill="#32154c"/>
        </g>
        <g id="Grupo_51" data-name="Grupo 51">
          <path id="Caminho_321" data-name="Caminho 321" d="M87.649,320.666h1.626a8.4,8.4,0,0,0,2.579.851.035.035,0,0,1,0,.07H87.438A1.377,1.377,0,0,1,87.649,320.666Z" fill="#32154c"/>
        </g>
        <g id="Grupo_52" data-name="Grupo 52">
          <path id="Caminho_322" data-name="Caminho 322" d="M78.553,320.666H80.18a7.914,7.914,0,0,0,2.567.815.054.054,0,0,1-.012.106H78.353A1.5,1.5,0,0,1,78.553,320.666Z" fill="#32154c"/>
        </g>
        <path id="Caminho_323" data-name="Caminho 323" d="M85.951,252.364c-9.56,1.011-7.5,40.339-7.5,40.339a37.244,37.244,0,0,0,19.887-.063S100.42,250.834,85.951,252.364Z" fill="#ff6695"/>
        <g id="Grupo_53" data-name="Grupo 53">
          <path id="Caminho_324" data-name="Caminho 324" d="M88.313,252.521c3.457.671,6.385,6.823,10.471,6.379,6.542-.709-1.452-6.232,3.691-6.916,8.358-1.112,4.825,14.779-3.888,13.386s-6.045-4.713-12.127-5.562C87.869,257.488,90.864,253.016,88.313,252.521Z" fill="#ff6695"/>
        </g>
        <path id="Caminho_325" data-name="Caminho 325" d="M84.246,253.016c-9.14,7.557-13.644,20.1-7.471,23.687S84.246,253.016,84.246,253.016Z" fill="#ff6695"/>
        <g id="Grupo_54" data-name="Grupo 54">
          <path id="Caminho_326" data-name="Caminho 326" d="M89.973,245.806c1.031,3.481-.022,6.1-2.138,6.66l-2.288-1.8.3-4.469Z" fill="#c2fff5"/>
        </g>
        <g id="Grupo_55" data-name="Grupo 55">
          <path id="Caminho_327" data-name="Caminho 327" d="M90.941,245.406a3.179,3.179,0,0,0-.74-1.2,4.994,4.994,0,0,0-2.72-1.456,3.972,3.972,0,0,0-2.977.683,5.3,5.3,0,0,0-1.8,3.112,6.6,6.6,0,0,0,.223,4.128,3.944,3.944,0,0,0,3.182,2.425,2.141,2.141,0,0,0,1.42-.353,2.6,2.6,0,0,0,.87-1.593,10.675,10.675,0,0,1,.416-1.8.769.769,0,0,1-.96-.35.683.683,0,0,1,.387-.914.615.615,0,0,1,.765.583,3.857,3.857,0,0,0,1.07-1.217,1.014,1.014,0,0,0,1.031-1.193A3.148,3.148,0,0,0,90.941,245.406Z" fill="#32154c"/>
        </g>
        <g id="Grupo_56" data-name="Grupo 56">
          <path id="Caminho_328" data-name="Caminho 328" d="M86.739,244.582a4.03,4.03,0,1,1-4.03-4.03A4.03,4.03,0,0,1,86.739,244.582Z" fill="#32154c"/>
        </g>
      </g>
      <g id="Grupo_67" data-name="Grupo 67">
        <g id="Grupo_58" data-name="Grupo 58">
          <path id="Caminho_329" data-name="Caminho 329" d="M412.925,293.507s.992,26.756,2.7,39.83h3.439q.288-16.643,1.911-32.687c1.184,17.258,3.767,32.687,3.767,32.687h3.439a286.737,286.737,0,0,1,.672-39.83Z" fill="#51f2ed"/>
        </g>
        <g id="Grupo_59" data-name="Grupo 59">
          <path id="Caminho_330" data-name="Caminho 330" d="M424.663,253.373l-.335-4.991-4.607-.432c-.864,2.915-.689,5.8.585,7.068.425.423,1.211.214,1.8.37V257.2h1.8v-1.807l.268-1.631Z" fill="#c2fff5"/>
        </g>
        <g id="Grupo_60" data-name="Grupo 60">
          <path id="Caminho_331" data-name="Caminho 331" d="M422.86,256.756c8.375.944,6.57,37.637,6.57,37.637a30.731,30.731,0,0,1-17.422-.059S410.184,255.329,422.86,256.756Z" fill="#7e5bff"/>
        </g>
        <g id="Grupo_61" data-name="Grupo 61">
          <path id="Caminho_332" data-name="Caminho 332" d="M423.634,256.955c2.992.879,10.287,10.814,11.028,15.336.749,4.567-6.814,8.235-6.814,8.235Z" fill="#7e5bff"/>
        </g>
        <g id="Grupo_63" data-name="Grupo 63">
          <g id="Grupo_62" data-name="Grupo 62">
            <path id="Caminho_333" data-name="Caminho 333" d="M419.45,257.889c.151-.1.3-.205.454-.308a2.033,2.033,0,0,1-.452-.1,64.033,64.033,0,0,0-9.97,8.439c-1.389,1.449-3.073,3.036-3.644,5.029a6.069,6.069,0,0,0,1.415,5.291,27.927,27.927,0,0,0,4.866,4.8c1.2.959,3.067,2.581,4.6,1.282a5.773,5.773,0,0,0,1.31-2.165q.707-1.6,1.307-3.238a52.966,52.966,0,0,0,2.071-7.226,38.529,38.529,0,0,0,1.023-7.755C422.428,260.113,421.607,257.881,419.45,257.889Z" fill="#7e5bff"/>
          </g>
        </g>
        <g id="Grupo_64" data-name="Grupo 64">
          <path id="Caminho_334" data-name="Caminho 334" d="M426.959,251.058a1.577,1.577,0,0,0-.421-1.378,3.676,3.676,0,0,1-.813-1.247c-.151-.571.07-1.224-.212-1.742a1.613,1.613,0,0,0-1.471-.669,9.618,9.618,0,0,1-1.7.034c-.411-.071-.792-.264-1.2-.353a2.451,2.451,0,0,0-2.792,3.325,1.313,1.313,0,0,0,1.1.9c.5,0,.929-.423,1.423-.386a3.1,3.1,0,0,1,.931.392.975.975,0,0,0,.5.071,2.586,2.586,0,0,0,.236,1.032,1.565,1.565,0,0,1,.5-.606.6.6,0,0,1,.734.043.765.765,0,0,1,.054.788,2.336,2.336,0,0,1-.865,1.1,1.234,1.234,0,0,1,.235,1.206,2.112,2.112,0,0,0-.041,1.268,1.1,1.1,0,0,0,.661.567,2.054,2.054,0,0,0,.886.07,2.5,2.5,0,0,0,1.318-.5,1.532,1.532,0,0,0,.59-1.243c-.035-.545-.42-1.067-.28-1.594C426.445,251.732,426.832,251.455,426.959,251.058Z" fill="#32154c"/>
        </g>
        <g id="Grupo_65" data-name="Grupo 65">
          <path id="Caminho_335" data-name="Caminho 335" d="M415.628,333.337a5.564,5.564,0,0,1-1.91.913H419.2l-.135-.913Z" fill="#32154c"/>
        </g>
        <g id="Grupo_66" data-name="Grupo 66">
          <path id="Caminho_336" data-name="Caminho 336" d="M424.745,333.337a2.107,2.107,0,0,1-1.6.913h5.188a.818.818,0,0,0-.152-.913Z" fill="#32154c"/>
        </g>
      </g>
      <g id="Grupo_79" data-name="Grupo 79">
        <g id="Grupo_69" data-name="Grupo 69">
          <g id="Grupo_68" data-name="Grupo 68">
            <path id="Caminho_337" data-name="Caminho 337" d="M192.609,299.42c.05.482.192,1.017.589,1.178a1.468,1.468,0,0,0,1.316-.246l.011.008a1.42,1.42,0,0,0,1.842-.556,2.816,2.816,0,0,0,.336-1.129c.1-.576.119-.988.758-1.116a4.407,4.407,0,0,0,.49-.116.191.191,0,0,0-.009-.367,5.2,5.2,0,0,0-5.164,1.6.186.186,0,0,0-.2.188v.038c-.071.088-.142.177-.209.27C192.26,299.328,192.455,299.471,192.609,299.42Z" fill="#c2fff5"/>
          </g>
        </g>
        <g id="Grupo_70" data-name="Grupo 70">
          <path id="Caminho_338" data-name="Caminho 338" d="M171.637,354.982c-1.052,3.534-2.172,7.024-3.414,10.49h-1.71c.4-3.725.677-7.485.866-11.222q.283-5.718.253-11.4c-.028-3.338-.17-6.654-.4-9.929q-.9,5.447-2.136,10.731-1.363,5.734-3.02,11.329c-1.051,3.534-2.172,7.024-3.414,10.49h-1.71c.4-3.725.677-7.485.867-11.222q.282-5.718.252-11.4c-.031-3.781-.2-7.535-.495-11.232-.01-.113-.023-.223-.034-.336A9.926,9.926,0,0,1,161.4,327.3a13.238,13.238,0,0,1,7.372-1.059c2.628.215,6.461,1.342,8.49,3.546q-.147,1.11-.31,2.213-.952,5.927-2.294,11.658Q173.294,349.388,171.637,354.982Z" fill="#c2fff5"/>
        </g>
        <g id="Grupo_71" data-name="Grupo 71">
          <path id="Caminho_339" data-name="Caminho 339" d="M166.513,365.472h1.71a8.843,8.843,0,0,0,2.711.9.037.037,0,0,1,0,.073h-4.639A1.445,1.445,0,0,1,166.513,365.472Z" fill="#32154c"/>
        </g>
        <g id="Grupo_72" data-name="Grupo 72">
          <path id="Caminho_340" data-name="Caminho 340" d="M156.949,365.472h1.71a8.357,8.357,0,0,0,2.7.857.056.056,0,0,1-.012.111h-4.608A1.571,1.571,0,0,1,156.949,365.472Z" fill="#32154c"/>
        </g>
        <path id="Caminho_341" data-name="Caminho 341" d="M157.512,336.267a81.171,81.171,0,0,1-1.615,16.157c8.743,3.321,19.112,1.9,19.112,1.9s2.729-11.617,2.251-19.586-15.2-3.931-15.2-3.931Z" fill="#ff6695"/>
        <g id="Grupo_73" data-name="Grupo 73">
          <path id="Caminho_342" data-name="Caminho 342" d="M164.728,293.652c-10.053,1.063-7.887,42.417-7.887,42.417A39.167,39.167,0,0,0,177.753,336S179.942,292.043,164.728,293.652Z" fill="#32154c"/>
        </g>
        <g id="Grupo_74" data-name="Grupo 74">
          <path id="Caminho_343" data-name="Caminho 343" d="M167.1,293.79c3.2.817,8.365,5.882,12.988,6.122,7.4.383,12.268-3.135,13.826-.688,2.53,3.976-9.925,11.508-17.884,6.99s-10.478-4.7-10.478-4.7Z" fill="#32154c"/>
        </g>
        <g id="Grupo_75" data-name="Grupo 75">
          <path id="Caminho_344" data-name="Caminho 344" d="M162.935,294.337c-9.611,7.947-14.347,21.131-7.856,24.908S162.935,294.337,162.935,294.337Z" fill="#32154c"/>
        </g>
        <g id="Grupo_76" data-name="Grupo 76">
          <path id="Caminho_345" data-name="Caminho 345" d="M168.956,286.756c1.085,3.66-.022,6.416-2.247,7l-2.406-1.9.316-4.7Z" fill="#c2fff5"/>
        </g>
        <g id="Grupo_78" data-name="Grupo 78">
          <g id="Grupo_77" data-name="Grupo 77">
            <path id="Caminho_346" data-name="Caminho 346" d="M170.638,286.741a2.742,2.742,0,0,0-1.586-2.355,3.6,3.6,0,0,0-1.729-.181,5.065,5.065,0,0,0-3.189.126,4.5,4.5,0,0,0-2.773,3.183,4.569,4.569,0,0,1-.389,1.5,7.9,7.9,0,0,1-1.182,1.165,2.521,2.521,0,0,0-.627,2.346,11.447,11.447,0,0,0,1.011,1.988,1.893,1.893,0,0,1-.052,2.087,6.2,6.2,0,0,1-.913.667,2.67,2.67,0,0,0-.416,3.515,6.234,6.234,0,0,0,3.258,2.256,5.6,5.6,0,0,0,3.417.326,2.215,2.215,0,0,0,1.717-2.48c-.152-.518-.573-.988-.5-1.521a1.591,1.591,0,0,1,.857-1.038,4.824,4.824,0,0,0,1.168-.8,2.138,2.138,0,0,0,.053-2.419,25.55,25.55,0,0,0-1.569-2.1,2.578,2.578,0,0,1-.476-2.423,2.941,2.941,0,0,1,.731-.929,2.579,2.579,0,0,0,2.262-.27A2.915,2.915,0,0,0,170.638,286.741Z" fill="#7e5bff"/>
          </g>
        </g>
      </g>
      <g id="Grupo_90" data-name="Grupo 90">
        <g id="Grupo_80" data-name="Grupo 80">
          <path id="Caminho_347" data-name="Caminho 347" d="M246.2,305.33s.962,25.937,2.621,38.612h3.333q.279-16.134,1.853-31.688c1.148,16.73,3.652,31.688,3.652,31.688h3.334a277.979,277.979,0,0,1,.651-38.612Z" fill="#7e5bff"/>
        </g>
        <g id="Grupo_81" data-name="Grupo 81">
          <path id="Caminho_348" data-name="Caminho 348" d="M257.581,266.421l-.326-4.838-4.466-.419c-.837,2.826-.667,5.622.568,6.852.411.41,1.174.208,1.747.359v1.752h1.744v-1.752l.26-1.581Z" fill="#c2fff5"/>
        </g>
        <g id="Grupo_82" data-name="Grupo 82">
          <path id="Caminho_349" data-name="Caminho 349" d="M259.225,262.292c-.276-.387-.645-.7-.928-1.085a8.7,8.7,0,0,0-.931-1.333,2.508,2.508,0,0,0-2.083-.514,9.514,9.514,0,0,0-2.1.7,5.16,5.16,0,0,1-2.148.49,2.173,2.173,0,0,0,.542,2.177,2.634,2.634,0,0,0,1.844.683,4.47,4.47,0,0,0,1.627-.351,3.111,3.111,0,0,0,.378,1.3.707.707,0,0,1,.911-.442.786.786,0,0,1,.429.945.887.887,0,0,1-.889.58,12.335,12.335,0,0,0,1,2.939,6.07,6.07,0,0,0,2.544-2.585A3.568,3.568,0,0,0,259.225,262.292Z" fill="#7e5bff"/>
        </g>
        <g id="Grupo_84" data-name="Grupo 84">
          <g id="Grupo_83" data-name="Grupo 83">
            <path id="Caminho_350" data-name="Caminho 350" d="M229.687,275.83c-.062-.087-.128-.169-.194-.251v-.036a.173.173,0,0,0-.182-.175,4.848,4.848,0,0,0-4.81-1.487.178.178,0,0,0-.008.342,4.016,4.016,0,0,0,.456.108c.6.119.61.5.706,1.039a2.611,2.611,0,0,0,.314,1.052,1.323,1.323,0,0,0,1.715.518l.011-.008a1.367,1.367,0,0,0,1.225.23c.37-.15.5-.649.549-1.1C229.613,276.112,229.794,275.979,229.687,275.83Z" fill="#c2fff5"/>
          </g>
        </g>
        <g id="Grupo_85" data-name="Grupo 85">
          <path id="Caminho_351" data-name="Caminho 351" d="M255.832,269.7c8.119.915,6.37,36.487,6.37,36.487a29.8,29.8,0,0,1-16.89-.057S243.544,268.317,255.832,269.7Z" fill="#32154c"/>
        </g>
        <g id="Grupo_86" data-name="Grupo 86">
          <path id="Caminho_352" data-name="Caminho 352" d="M254.926,269.664c-3.517-.029-10.44,4.556-13.28,6.547a3.6,3.6,0,0,1-2.819.575l-8.177-1.728a1.855,1.855,0,0,0-2.172,1.321h0a1.855,1.855,0,0,0,1.359,2.3c1.1.262,2.58.61,4.065.96a32.7,32.7,0,0,0,12.3.51l4.736-.706Z" fill="#32154c"/>
        </g>
        <g id="Grupo_87" data-name="Grupo 87">
          <path id="Caminho_353" data-name="Caminho 353" d="M256.848,270.127c7.17,6.524,10.24,13.781,10.426,16.572s-6.606,9.025-6.606,9.025Z" fill="#32154c"/>
        </g>
        <g id="Grupo_88" data-name="Grupo 88">
          <path id="Caminho_354" data-name="Caminho 354" d="M248.822,343.942l-1.845,1.379H252.1l.051-1.379Z" fill="#32154c"/>
        </g>
        <g id="Grupo_89" data-name="Grupo 89">
          <path id="Caminho_355" data-name="Caminho 355" d="M257.66,343.942l-1.4,1.379h4.651l.082-1.379Z" fill="#32154c"/>
        </g>
      </g>
      <g id="Grupo_99" data-name="Grupo 99">
        <g id="Grupo_91" data-name="Grupo 91">
          <path id="Caminho_356" data-name="Caminho 356" d="M296.206,293.3c13.112,9.117,14.009,20.84,5.789,23.966S296.206,293.3,296.206,293.3Z" fill="#51f2ed"/>
        </g>
        <g id="Grupo_92" data-name="Grupo 92">
          <path id="Caminho_357" data-name="Caminho 357" d="M285.514,350.965c.563,3.4,1.2,6.75,1.953,10.081h1.643c.083-3.58.3-7.193.587-10.784q.453-5.5,1.2-10.954c.449-3.209,1.005-6.4,1.643-9.543q.182,5.235.7,10.313.584,5.511,1.468,10.887c.563,3.4,1.2,6.75,1.953,10.081H298.3c.083-3.58.3-7.193.587-10.784q.451-5.5,1.2-10.954c.509-3.634,1.148-7.242,1.9-10.794.024-.108.051-.215.075-.323a7.874,7.874,0,0,0-3.2-3.832c-1.994-1.157-4.552-1.214-6.95-1.019-2.553.207-6.379,1.291-8.608,3.408q0,1.067.018,2.127.165,5.7.729,11.2Q284.628,345.589,285.514,350.965Z" fill="#32154c"/>
        </g>
        <g id="Grupo_93" data-name="Grupo 93">
          <path id="Caminho_358" data-name="Caminho 358" d="M289.11,361.046h-1.643a8.434,8.434,0,0,1-2.6.86.035.035,0,0,0,0,.07h4.458A1.41,1.41,0,0,0,289.11,361.046Z" fill="#32154c"/>
        </g>
        <g id="Grupo_94" data-name="Grupo 94">
          <path id="Caminho_359" data-name="Caminho 359" d="M298.3,361.046h-1.644a8.026,8.026,0,0,1-2.593.823.054.054,0,0,0,.012.107H298.5A1.51,1.51,0,0,0,298.3,361.046Z" fill="#32154c"/>
        </g>
        <g id="Grupo_95" data-name="Grupo 95">
          <path id="Caminho_360" data-name="Caminho 360" d="M294.5,292.028c9.678,1.022,8.262,40.762,8.262,40.762a37.581,37.581,0,0,1-20.1-.064S279.857,290.482,294.5,292.028Z" fill="#51f2ed"/>
        </g>
        <g id="Grupo_96" data-name="Grupo 96">
          <path id="Caminho_361" data-name="Caminho 361" d="M290.013,284.054c-.983,3.516.125,6.165,2.273,6.729l2.281-1.823-.379-4.516Z" fill="#c2fff5"/>
        </g>
        <g id="Grupo_97" data-name="Grupo 97">
          <path id="Caminho_362" data-name="Caminho 362" d="M290.554,292.826c-8.33,5.208-12.717,10.158-14.341,14.326s8.67,12.113,8.67,12.113Z" fill="#51f2ed"/>
        </g>
        <g id="Grupo_98" data-name="Grupo 98">
          <path id="Caminho_363" data-name="Caminho 363" d="M292.725,285.107a10.346,10.346,0,0,1-.636,5.777,4.8,4.8,0,0,0-.625,2.538,2.49,2.49,0,0,0,.958,1.488,5.082,5.082,0,0,0,1.621.786,13.324,13.324,0,0,0,4.469.535,3.929,3.929,0,0,0,2.89-1.014,3.015,3.015,0,0,0,.426-2.838,10.5,10.5,0,0,0-1.433-2.62,6.819,6.819,0,0,1-1.218-2.711,11.408,11.408,0,0,1,.147-2.63,3.693,3.693,0,0,0-.486-2.536,3.557,3.557,0,0,0-1.765-1.143,7.834,7.834,0,0,0-3.82-.368,6.222,6.222,0,0,0-3.406,1.715,2.163,2.163,0,0,0-.673,1.159,1.825,1.825,0,0,0,1.232,1.8,5.288,5.288,0,0,0,2.319.058" fill="#32154c"/>
        </g>
      </g>
      <g id="Grupo_108" data-name="Grupo 108">
        <g id="Grupo_100" data-name="Grupo 100">
          <path id="Caminho_364" data-name="Caminho 364" d="M405.221,199.547h0c-8.69,6.119-46.783,30.727-89.977,25.171a7.982,7.982,0,0,1,.921.706,101.019,101.019,0,0,0,11.832.695c38.95,0,71.432-21.717,78.151-26.531C405.917,199.569,405.221,199.547,405.221,199.547Z" fill="#32154c"/>
        </g>
        <g id="Grupo_101" data-name="Grupo 101">
          <path id="Caminho_365" data-name="Caminho 365" d="M320.675,225.078l3.312,7.307a.545.545,0,0,0,.98.027l3.571-6.853a.546.546,0,0,0-.448-.8l-6.883-.454A.545.545,0,0,0,320.675,225.078Z" fill="#7e5bff"/>
        </g>
        <g id="Grupo_102" data-name="Grupo 102">
          <path id="Caminho_366" data-name="Caminho 366" d="M332.914,225.591l4.252,6.8a.546.546,0,0,0,.975-.1l2.63-7.266a.544.544,0,0,0-.549-.729l-6.882.462A.545.545,0,0,0,332.914,225.591Z" fill="#51f2ed"/>
        </g>
        <g id="Grupo_103" data-name="Grupo 103">
          <path id="Caminho_367" data-name="Caminho 367" d="M345.524,224.048l4.732,6.478a.545.545,0,0,0,.965-.173l2.1-7.436a.545.545,0,0,0-.6-.688l-6.831.958A.545.545,0,0,0,345.524,224.048Z" fill="#7e5bff"/>
        </g>
        <g id="Grupo_104" data-name="Grupo 104">
          <path id="Caminho_368" data-name="Caminho 368" d="M357.823,221.51l5.316,6.009a.545.545,0,0,0,.944-.263l1.4-7.6a.545.545,0,0,0-.662-.629l-6.712,1.592A.545.545,0,0,0,357.823,221.51Z" fill="#51f2ed"/>
        </g>
        <g id="Grupo_105" data-name="Grupo 105">
          <path id="Caminho_369" data-name="Caminho 369" d="M369.79,217.83l5.9,5.434a.545.545,0,0,0,.913-.357l.612-7.7a.544.544,0,0,0-.722-.558l-6.514,2.268A.545.545,0,0,0,369.79,217.83Z" fill="#7e5bff"/>
        </g>
        <g id="Grupo_106" data-name="Grupo 106">
          <path id="Caminho_370" data-name="Caminho 370" d="M381.807,212.947l6.427,4.8a.545.545,0,0,0,.871-.449l-.179-7.725a.546.546,0,0,0-.776-.481l-6.248,2.924A.545.545,0,0,0,381.807,212.947Z" fill="#51f2ed"/>
        </g>
        <g id="Grupo_107" data-name="Grupo 107">
          <path id="Caminho_371" data-name="Caminho 371" d="M393.255,207.086l6.774,4.3a.545.545,0,0,0,.835-.514l-.767-7.689a.544.544,0,0,0-.81-.42l-6.007,3.39A.545.545,0,0,0,393.255,207.086Z" fill="#7e5bff"/>
        </g>
      </g>
      <g id="Grupo_113" data-name="Grupo 113">
        <g id="Grupo_109" data-name="Grupo 109">
          <path id="Caminho_372" data-name="Caminho 372" d="M205.088,264.458a89.045,89.045,0,0,1-52.952-14.167,98.684,98.684,0,0,1-16.877-13.548l0,.007s-.053.232-.175.632a99.65,99.65,0,0,0,16.724,13.379,90.025,90.025,0,0,0,48.319,14.4c1.657,0,3.352-.049,5.064-.148C205.148,264.8,205.111,264.6,205.088,264.458Z" fill="#32154c"/>
        </g>
        <path id="Caminho_373" data-name="Caminho 373" d="M138.287,239.115l-1.821,7.814a.545.545,0,0,0,.761.617l7-3.262a.545.545,0,0,0,.129-.9l-5.183-4.551A.545.545,0,0,0,138.287,239.115Z" fill="#ff6695"/>
        <g id="Grupo_110" data-name="Grupo 110">
          <path id="Caminho_374" data-name="Caminho 374" d="M148.755,247.158l-1,7.96a.545.545,0,0,0,.821.535l6.627-3.975a.545.545,0,0,0,.034-.912l-5.63-3.986A.545.545,0,0,0,148.755,247.158Z" fill="#51f2ed"/>
        </g>
        <path id="Caminho_375" data-name="Caminho 375" d="M159.9,253.941l.66,8a.545.545,0,0,0,.913.355l5.669-5.252a.546.546,0,0,0-.154-.9l-6.328-2.743A.545.545,0,0,0,159.9,253.941Z" fill="#ff6695"/>
        <g id="Grupo_111" data-name="Grupo 111">
          <path id="Caminho_376" data-name="Caminho 376" d="M171.273,258.937l1.388,7.9a.545.545,0,0,0,.942.27l5.165-5.748a.545.545,0,0,0-.235-.882l-6.553-2.154A.545.545,0,0,0,171.273,258.937Z" fill="#51f2ed"/>
        </g>
        <path id="Caminho_377" data-name="Caminho 377" d="M183.848,262.594l2.685,7.56a.545.545,0,0,0,.974.11l4.135-6.528a.544.544,0,0,0-.379-.83l-6.82-1.033A.545.545,0,0,0,183.848,262.594Z" fill="#ff6695"/>
        <g id="Grupo_112" data-name="Grupo 112">
          <path id="Caminho_378" data-name="Caminho 378" d="M195.652,264.057l3.736,7.1a.545.545,0,0,0,.98-.031l3.161-7.051a.545.545,0,0,0-.493-.768l-6.9-.049A.545.545,0,0,0,195.652,264.057Z" fill="#51f2ed"/>
        </g>
      </g>
    </g>
  </g>
</svg>
